<?xml version="1.0" encoding="UTF-8" standalone="no"?>
<!DOCTYPE svg PUBLIC "-//W3C//DTD SVG 1.1//EN" "http://www.w3.org/Graphics/SVG/1.1/DTD/svg11.dtd">
<svg xmlns="http://www.w3.org/2000/svg" xmlns:xl="http://www.w3.org/1999/xlink" version="1.1" xmlns:dc="http://purl.org/dc/elements/1.1/" viewBox="0 0 516 361" width="516" height="361">
  <defs>
    <linearGradient x1="0" x2="1" id="Gradient" gradientUnits="userSpaceOnUse">
      <stop offset="0" stop-color="#f71d69"/>
      <stop offset=".49930103" stop-color="#b66e51"/>
      <stop offset="1" stop-color="#68bc36"/>
    </linearGradient>
    <linearGradient id="Obj_Gradient" xl:href="#Gradient" gradientTransform="translate(305.3 203.6) scale(27.1)"/>
    <linearGradient x1="0" x2="1" id="Gradient_2" gradientUnits="userSpaceOnUse">
      <stop offset="0" stop-color="#68bc36"/>
      <stop offset=".49766393" stop-color="#52a49b"/>
      <stop offset="1" stop-color="#3a8eed"/>
    </linearGradient>
    <linearGradient id="Obj_Gradient_2" xl:href="#Gradient_2" gradientTransform="translate(305.3 238.44578) scale(25.6)"/>
    <linearGradient x1="0" x2="1" id="Gradient_3" gradientUnits="userSpaceOnUse">
      <stop offset="0" stop-color="#e5a4ed"/>
      <stop offset="0" stop-color="#ac90ca"/>
      <stop offset="1" stop-color="#6b7ca5"/>
    </linearGradient>
    <linearGradient id="Obj_Gradient_3" xl:href="#Gradient_3" gradientTransform="translate(333.2 238.44578) scale(25.6)"/>
    <linearGradient x1="0" x2="1" id="Gradient_4" gradientUnits="userSpaceOnUse">
      <stop offset="0" stop-color="#e5a4ed"/>
      <stop offset="0" stop-color="#ec83b5"/>
      <stop offset="1" stop-color="#f26077"/>
    </linearGradient>
    <linearGradient id="Obj_Gradient_4" xl:href="#Gradient_4" gradientTransform="translate(361.8 238.45) scale(25.8)"/>
    <linearGradient x1="0" x2="1" id="Gradient_5" gradientUnits="userSpaceOnUse">
      <stop offset="0" stop-color="#68bc36"/>
      <stop offset=".49938" stop-color="#5ba61b"/>
      <stop offset="1" stop-color="#4e8f00"/>
    </linearGradient>
    <linearGradient id="Obj_Gradient_5" xl:href="#Gradient_5" gradientTransform="translate(258.04012 61.24867) rotate(80.27449) scale(97.19957)"/>
    <linearGradient x1="0" x2="1" id="Gradient_6" gradientUnits="userSpaceOnUse">
      <stop offset="0" stop-color="#68bc36"/>
      <stop offset=".49970615" stop-color="#3ea61b"/>
      <stop offset="1" stop-color="#008f00"/>
    </linearGradient>
    <linearGradient id="Obj_Gradient_6" xl:href="#Gradient_6" gradientTransform="translate(212.6815 134.83699) rotate(-.26770858) scale(58.63766)"/>
    <linearGradient x1="0" x2="1" id="Gradient_7" gradientUnits="userSpaceOnUse">
      <stop offset="0" stop-color="#68bc36"/>
      <stop offset="0" stop-color="#5ba61b"/>
      <stop offset="1" stop-color="#4e8f00"/>
    </linearGradient>
    <linearGradient id="Obj_Gradient_7" xl:href="#Gradient_7" gradientTransform="translate(226.48694 56.48317) rotate(80.27449) scale(68.82275)"/>
    <linearGradient x1="0" x2="1" id="Gradient_8" gradientUnits="userSpaceOnUse">
      <stop offset="0" stop-color="#8efa00"/>
      <stop offset="0" stop-color="#55c700"/>
      <stop offset="1" stop-color="#008f00"/>
    </linearGradient>
    <linearGradient id="Obj_Gradient_8" xl:href="#Gradient_8" gradientTransform="translate(230.32478 114.7254) rotate(80.27449) scale(23.385287)"/>
    <linearGradient x1="0" x2="1" id="Gradient_9" gradientUnits="userSpaceOnUse">
      <stop offset="0" stop-color="#8efa00"/>
      <stop offset="0" stop-color="#55c72f"/>
      <stop offset="1" stop-color="#009051"/>
    </linearGradient>
    <linearGradient id="Obj_Gradient_9" xl:href="#Gradient_9" gradientTransform="translate(126.79597 199.81138) rotate(37.88474) scale(122.91207)"/>
  </defs>
  <metadata> Produced by OmniGraffle 7.18.1\n2021-01-04 22:46:05 +0000</metadata>
  <g id="Canvas_1" fill-opacity="1" stroke-dasharray="none" stroke-opacity="1" stroke="none" fill="none">
    <title>Canvas 1</title>
    <g id="Canvas_1_Layer_1">
      <title>Layer 1</title>
      <g id="Group_2">
        <title>Layer_1</title>
        <g id="Group_3">
          <g id="Graphic_18">
            <path d="M 49.488835 190.85525 C 41.788835 139.35525 24.488835 134.85525 11.188835 108.85525 C -.9111649 85.25525 -10.611165 46.555253 23.488835 18.855253 C 76.488835 -24.144747 141.48884 19.855253 141.48884 19.855253 C 141.48884 19.855253 244.48884 78.85525 262.48884 81.85525 C 280.48884 84.85525 324.48884 114.85525 379.48884 78.85525 C 434.48884 42.855253 481.48884 45.855253 496.48884 72.85525 C 511.48884 99.85525 477.48884 177.85525 469.48884 193.85525 C 461.48884 209.85525 473.48884 259.85525 486.48884 279.85525 C 499.48884 299.85525 540.48884 361.85525 452.48884 359.85525 C 364.48884 357.85525 100.48884 360.85525 100.48884 360.85525 C 100.48884 360.85525 5.688835 359.05525 22.488835 266.85525 C 36.488835 189.85525 52.488835 210.85525 49.488835 190.85525 Z" fill="#009051" fill-opacity=".10717612"/>
          </g>
          <g id="Graphic_17">
            <circle cx="83.48884" cy="163.85525" r="20.0000419580539" fill="#009051" fill-opacity=".7908475"/>
          </g>
          <g id="Graphic_16">
            <circle cx="49.988835" cy="188.35525" r="13.5000283216864" fill="#4e8f00" fill-opacity=".6555257"/>
          </g>
          <g id="Graphic_15">
            <circle cx="51.988835" cy="157.35525" r="7.50001573427022" fill="#009051" fill-opacity=".5"/>
          </g>
          <g id="Graphic_14">
            <circle cx="495.524" cy="298.801" r="20.0003464563747" fill="#009051" fill-opacity=".8008589"/>
          </g>
          <g id="Graphic_13">
            <circle cx="14.988835" cy="62.35525" r="7.50001573427021" fill="#009051" fill-opacity=".28616515"/>
          </g>
          <g id="Graphic_12">
            <circle cx="139.98884" cy="297.35525" r="35.5000744755456" fill="#008f00" fill-opacity=".32566743"/>
          </g>
          <g id="Graphic_11">
            <circle cx="378.20003" cy="336.85523" r="24.0000503496646" fill="#4e8f00" fill-opacity=".23926428"/>
          </g>
          <g id="Graphic_10">
            <circle cx="466.48884" cy="201.85525" r="13.0000272727351" fill="#00fa00" fill-opacity=".34318088"/>
          </g>
          <g id="Graphic_9">
            <circle cx="369.48884" cy="84.85525" r="26.00005454547" fill="#008f00" fill-opacity=".2095923"/>
          </g>
          <g id="Graphic_8">
            <circle cx="130.98884" cy="15.355253" r="12.5000262237837" fill="#009051" fill-opacity=".6927773"/>
          </g>
          <g id="Graphic_7">
            <circle cx="90.98884" cy="264.35525" r="12.5000262237837" fill="#008f00" fill-opacity=".22053498"/>
          </g>
          <g id="Graphic_6">
            <circle cx="493.98884" cy="119.35525" r="12.5000262237837" fill="#4e8f00" fill-opacity=".57967715"/>
          </g>
          <g id="Graphic_5">
            <circle cx="473.98884" cy="331.35525" r="13.5000283216864" fill="#009051" fill-opacity=".8559603"/>
          </g>
          <g id="Graphic_4">
            <circle cx="503.98884" cy="338.35525" r="7.50001573427031" fill="#68bc36" fill-opacity=".587024"/>
          </g>
        </g>
      </g>
      <g id="Group_19">
        <title>Layer_2</title>
        <g id="Group_38">
          <title>Computer</title>
          <g id="Graphic_67">
            <path d="M 288.2 283.1012 L 406.4 283.1012 C 406.4 283.1012 410.8 282.94606 410.8 278.91233 L 410.8 271 L 283.5 271 L 283.5 280.54134 C 284.2 282.17035 286 283.17878 288.2 283.1012" fill="#009051" fill-opacity=".7744205"/>
          </g>
          <g id="Graphic_66">
            <rect x="283.447" y="183.7" width="127.3" height="87.3" fill="#009051" fill-opacity=".7744205"/>
          </g>
          <g id="Graphic_65">
            <rect x="337.00363" y="283.1054" width="18.792746" height="19.29462" fill="#009051" fill-opacity=".7744205"/>
          </g>
          <g id="Graphic_64">
            <path d="M 307.6 302.4 L 385 302.4 L 385.1 306.3 L 307.6 306.3 Z" fill="#009051" fill-opacity=".7744205"/>
          </g>
          <g id="Graphic_63">
            <path d="M 346 273.1 C 348.1 273.1 349.7 274.7 349.7 276.8 C 349.7 278.9 348.1 280.5 346 280.5 C 343.9 280.5 342.3 278.9 342.3 276.8 C 342.3 274.7 344 273.1 346 273.1" fill="white"/>
          </g>
          <g id="Graphic_62">
            <rect x="287.4" y="187.7" width="119.5" height="78.4" fill="#f8f8ff"/>
          </g>
          <g id="Graphic_61">
            <path d="M 293.4 191.7 C 294.4 191.7 295.3 192.6 295.3 193.6 C 295.3 194.6 294.4 195.5 293.4 195.5 C 292.4 195.5 291.5 194.6 291.5 193.6 C 291.5 192.6 292.4 191.7 293.4 191.7" fill="#fa5f5d"/>
          </g>
          <g id="Graphic_60">
            <path d="M 299.8 191.7 C 300.8 191.7 301.7 192.6 301.7 193.6 C 301.7 194.6 300.8 195.5 299.8 195.5 C 298.8 195.5 297.9 194.6 297.9 193.6 C 297.9 192.6 298.7 191.7 299.8 191.7" fill="#fdbc4e"/>
          </g>
          <g id="Graphic_59">
            <path d="M 306.4 191.7 C 307.4 191.7 308.3 192.6 308.3 193.6 C 308.3 194.6 307.4 195.5 306.4 195.5 C 305.4 195.5 304.5 194.6 304.5 193.6 C 304.6 192.6 305.4 191.7 306.4 191.7" fill="#37cd58"/>
          </g>
          <g id="Graphic_58">
            <path d="M 332.4 205.4 C 332.3 206.4 331.5 207.2 330.5 207.1 L 307.6 207.1 C 306.4 207.1 305.3 206.3 305.3 205.4 L 305.3 201.9 C 305.3 201 306.4 200.1 307.6 200.1 L 330.4 200.1 C 331.4 200 332.3 200.8 332.4 201.8 L 332.4 201.9 L 332.4 205.4 Z" fill="url(#Obj_Gradient)"/>
          </g>
          <g id="Graphic_57"/>
          <g id="Graphic_56">
            <path d="M 330.9 243.2 C 330.9 244.2 330 245.1 329 245.1 L 307.6 245.1 C 306.4 245.1 305.3 244.2 305.3 243.2 L 305.3 233.7 C 305.3 232.7 306.5 231.8 307.6 231.8 L 328.9 231.8 C 329.9 231.7 330.8 232.5 330.9 233.6 L 330.9 233.7 L 330.9 243.2 Z" fill="url(#Obj_Gradient_2)"/>
          </g>
          <g id="Graphic_55">
            <path d="M 358.8 243.2 C 358.8 244.2 357.9 245.1 356.9 245.1 L 335.5 245.1 C 334.3 245.1 333.2 244.2 333.2 243.2 L 333.2 233.7 C 333.2 232.7 334.4 231.8 335.5 231.8 L 356.8 231.8 C 357.8 231.7 358.7 232.5 358.8 233.6 L 358.8 233.7 L 358.8 243.2 Z" fill="url(#Obj_Gradient_3)"/>
          </g>
          <g id="Graphic_54">
            <path d="M 387.5 243.2 C 387.4 244.3 386.5 245.1 385.4 245.1 L 364.1 245.1 C 362.9 245.2 362 244.3 361.8 243.2 L 361.8 233.7 C 361.9 232.5 362.9 231.8 364.1 231.8 L 385.4 231.8 C 386.5 231.7 387.5 232.6 387.6 233.7 Z" fill="url(#Obj_Gradient_4)"/>
          </g>
          <g id="Graphic_53">
            <path d="M 358.8 248.6 C 358.6 249 358.3 249.2 357.9 249.3 C 357.8 249.3 357.8 249.3 357.7 249 L 334.3 249 C 333.8 249.3 333.1 249 333.1 248.6 L 333.1 248.3 C 333.1 247.9 333.8 247.5 334.3 247.4 L 357.7 247.4 C 358.1 247.5 358.3 247.8 358.4 248.1 C 358.4 248.2 358.4 248.2 358.6 248.3 Z" fill="#e9edfb"/>
          </g>
          <g id="Graphic_52">
            <path d="M 358.8 251.6 C 358.6 252 358.3 252.3 357.9 252.4 C 357.9 252.4 357.8 252.4 357.8 252.1 L 334.3 252.1 C 333.8 252.4 333.1 252.1 333.1 251.6 L 333.1 251.3 C 333.1 250.9 333.8 250.6 334.3 250.5 L 357.7 250.5 C 358.1 250.6 358.5 250.9 358.6 251.3 Z" fill="#e9edfb"/>
          </g>
          <g id="Graphic_51">
            <path d="M 358.8 254.7 C 358.6 255.2 358.3 255.5 357.9 255.6 C 357.9 255.4 357.9 255.4 357.9 255.2 L 334.4 255.2 C 334 255.4 333.5 255.4 333.3 255 C 333.2 254.9 333.2 254.8 333.2 254.8 L 333.2 254.5 C 333.2 254.1 333.9 253.9 334.4 253.7 L 357.8 253.7 C 358.2 253.8 358.6 254.1 358.7 254.5 Z" fill="#e9edfb"/>
          </g>
          <g id="Graphic_50">
            <path d="M 358.8 257.7 C 358.6 258.2 358.3 258.6 357.9 259 L 334.4 259 C 333.9 258.6 333.2 258.1 333.2 257.7 L 333.2 257.4 C 333.2 257 333.9 256.5 334.4 256.7 L 357.8 256.7 C 358.1 256.6 358.4 256.9 358.5 257.2 C 358.5 257.3 358.5 257.4 358.5 257.4 C 358.5 257.4 358.5 257.4 358.7 257.5 Z" fill="#e9edfb"/>
          </g>
          <g id="Graphic_49">
            <path d="M 345.8 260.8 C 345.8 261.2 345.6 261.3 345.1 261.3 L 334.3 261.3 C 333.8 261.3 333.2 261.1 333.2 260.8 L 333.2 260.5 C 333.2 260.1 333.8 259.8 334.3 259.8 L 345.1 259.8 C 345.5 259.8 345.8 260.1 345.8 260.5 Z" fill="#e9edfb"/>
          </g>
          <g id="Graphic_48">
            <path d="M 387.5 248.6 C 387 249 387.1 249.3 386.6 249 L 363.2 249 C 362.8 249.3 362.4 249.1 362.4 248.7 C 362.4 248.7 362.4 248.7 362.6 248.6 L 362.6 248.3 C 362.4 247.9 362.7 247.5 363.1 247.4 L 386.5 247.4 C 387 247.6 386.9 247.9 387.4 248.3 L 387.4 248.6 Z" fill="#e9edfb"/>
          </g>
          <g id="Graphic_47">
            <path d="M 387.5 251.6 C 387 252 387.1 252.4 386.6 252.1 L 363.2 252.1 C 362.7 252.4 362.4 252.1 362.7 251.6 L 362.7 251.3 C 362.5 250.9 362.8 250.6 363.2 250.5 L 386.6 250.5 C 387.1 250.7 387 250.9 387.5 251.3 Z" fill="#e9edfb"/>
          </g>
          <g id="Graphic_46">
            <path d="M 387.5 254.7 C 387 255.1 387.1 255.6 386.6 255.2 L 363.2 255.2 C 362.7 255.5 362.4 255.2 362.7 254.7 L 362.7 254.4 C 362.5 254 362.8 253.8 363.2 253.6 L 386.6 253.6 C 387.1 253.8 387 254 387.5 254.4 Z" fill="#e9edfb"/>
          </g>
          <g id="Graphic_45">
            <path d="M 387.5 257.7 C 387 258.1 387.1 258.6 386.6 259 L 363.2 259 C 362.7 258.5 362.4 258.1 362.7 257.7 L 362.7 257.4 C 362.5 257.2 362.5 256.9 362.7 256.8 C 362.9 256.7 363 256.6 363.2 256.7 L 386.7 256.7 C 387.2 256.5 387.1 257 387.6 257.4 L 387.6 257.7 Z" fill="#e9edfb"/>
          </g>
          <g id="Graphic_44">
            <path d="M 374.6 260.8 C 374.6 261.2 374.6 261.3 374.2 261.3 L 363.3 261.3 C 362.8 261.3 362.6 261.1 362.6 260.8 L 362.6 260.5 C 362.6 260.1 362.9 259.8 363.3 259.8 L 374.1 259.8 C 374.6 259.8 374.5 260.1 374.5 260.5 Z" fill="#e9edfb"/>
          </g>
          <g id="Graphic_43">
            <path d="M 330.1 248.6 C 330.4 249 330.3 249.3 329.8 249 L 306.3 249 C 306 249.2 305.6 249.2 305.4 248.9 C 305.3 248.8 305.3 248.7 305.2 248.6 L 305.2 248.3 C 305.4 247.8 305.7 247.5 306.2 247.4 L 329.6 247.4 C 330.1 247.6 330.2 247.9 329.9 248.3 Z" fill="#e9edfb"/>
          </g>
          <g id="Graphic_42">
            <path d="M 330.1 251.6 C 330.4 252 330.3 252.4 329.8 252.1 L 306.3 252.1 C 305.8 252.5 305.4 252.1 305.3 251.6 L 305.3 251.3 C 305.4 250.9 305.8 250.6 306.3 250.5 L 329.7 250.5 C 330.2 250.7 330.3 250.9 330 251.3 Z" fill="#e9edfb"/>
          </g>
          <g id="Graphic_41">
            <path d="M 330.1 254.7 C 330.4 255.1 330.3 255.6 329.8 255.2 L 306.3 255.2 C 305.8 255.6 305.4 255.2 305.3 254.7 L 305.3 254.4 C 305.4 254 305.8 253.8 306.3 253.6 L 329.7 253.6 C 330.2 253.8 330.3 254 330 254.4 Z" fill="#e9edfb"/>
          </g>
          <g id="Graphic_40">
            <path d="M 323.1 256.7 L 329.8 256.7 C 330.3 256.5 330.4 257 330.1 257.4 L 330.1 257.7 C 330.4 258.1 330.3 258.6 329.8 259 L 306.3 259 C 305.8 258.7 305.5 258.2 305.3 257.7 L 305.3 257.4 C 305.4 256.9 305.8 256.6 306.3 256.7 L 323.1 256.7" fill="#e9edfb"/>
          </g>
          <g id="Graphic_39">
            <path d="M 318.5 260.8 C 318.5 261.2 318.3 261.3 317.8 261.3 L 306.2 261.3 C 305.7 261.3 305.3 261.1 305.3 260.8 L 305.3 260.5 C 305.4 260.1 305.8 259.8 306.2 259.8 L 317.8 259.8 C 318.2 259.8 318.5 260.1 318.5 260.4 C 318.5 260.4 318.5 260.4 318.5 260.5 Z" fill="#e9edfb"/>
          </g>
        </g>
        <g id="Group_28">
          <g id="Graphic_37">
            <path d="M 223.9 112.83321 L 262.5405 67.1 L 308.6 105.5691 L 269.9595 151.2 Z" fill="url(#Obj_Gradient_5)"/>
          </g>
          <g id="Graphic_36">
            <path d="M 212.8 119.2619 L 221.3 109.2 L 271.2 150.1381 L 262.7 160.2 Z" fill="url(#Obj_Gradient_6)"/>
          </g>
          <g id="Graphic_35">
            <path d="M 278.3 110.8 C 275.1 110.8 237.1 121.5 237.1 121.5 L 266.6 146.5 L 271.8 133.5 C 271.8 133.5 279.3 110.8 278.3 110.8 Z" fill="white"/>
          </g>
          <g id="Graphic_34">
            <rect x="201.3" y="60.8" width="62" height="59.2" fill="url(#Obj_Gradient_7)"/>
          </g>
          <g id="Graphic_33"/>
          <g id="Graphic_32">
            <rect x="201.3" y="119.7" width="62" height="13.1" fill="url(#Obj_Gradient_8)"/>
          </g>
          <g id="Graphic_31">
            <path d="M 238 119.5 L 254.6 91.6 L 263.3 103.7 L 263.3 120 L 256.5 120 Z" fill="white"/>
          </g>
          <g id="Graphic_30">
            <path d="M 221.8 119.5 L 241.6 93.1 L 257.2 119.7 Z" fill="white"/>
          </g>
          <g id="Graphic_29">
            <path d="M 222.6 72.1 C 225.2 72.1 227.3 74.2 227.3 76.8 C 227.3 79.4 225.2 81.5 222.6 81.5 C 220 81.5 217.9 79.4 217.9 76.8 C 217.9 74.2 220 72.1 222.6 72.1" fill="white"/>
          </g>
        </g>
        <g id="Group_20">
          <g id="Graphic_27">
            <path d="M 205.9 294.6 C 205.9 296.7 204.3 298.3 202.2 298.3 L 148.4 298.3 C 146.4 298.3 144.7 296.7 144.7 294.6 L 144.7 180.5 C 144.7 178.5 146.3 176.8 148.4 176.8 L 202.2 176.8 C 204.2 176.8 205.9 178.4 205.9 180.5 Z" fill="url(#Obj_Gradient_9)"/>
          </g>
          <g id="Graphic_26">
            <rect x="150.9" y="192.7" width="49.5" height="90.3" fill="white"/>
          </g>
          <g id="Graphic_25">
            <path d="M 151 283.1 L 151 192.9 L 184.3 192.8 L 164.5 283 Z" fill="white"/>
          </g>
          <g id="Graphic_24">
            <path d="M 171.6 185.7 L 178.9 185.7 C 179.4 185.7 179.9 186.1 179.9 186.7 C 179.9 187.2 179.5 187.7 178.9 187.7 L 171.6 187.7 C 171.1 187.7 170.6 187.3 170.6 186.7 C 170.6 186.1 171 185.7 171.6 185.7 Z" fill="white"/>
            <path d="M 171.6 185.7 L 178.9 185.7 C 179.4 185.7 179.9 186.1 179.9 186.7 C 179.9 187.2 179.5 187.7 178.9 187.7 L 171.6 187.7 C 171.1 187.7 170.6 187.3 170.6 186.7 C 170.6 186.1 171 185.7 171.6 185.7 Z" stroke="white" stroke-linecap="butt" stroke-linejoin="round" stroke-width="1"/>
          </g>
          <g id="Graphic_23">
            <circle cx="175.3" cy="182.2" r="0.900001888112419" fill="white"/>
          </g>
          <g id="Graphic_22"/>
          <g id="Graphic_21">
            <circle cx="175.3" cy="290.5" r="2.9000060839178" fill="white"/>
            <circle cx="175.3" cy="290.5" r="2.9000060839178" stroke="white" stroke-linecap="butt" stroke-linejoin="round" stroke-width="2"/>
          </g>
        </g>
      </g>
    </g>
  </g>
</svg>
