<?xml version="1.0" encoding="UTF-8" standalone="no"?>
<!DOCTYPE svg PUBLIC "-//W3C//DTD SVG 1.1//EN" "http://www.w3.org/Graphics/SVG/1.1/DTD/svg11.dtd">
<svg xmlns="http://www.w3.org/2000/svg" xmlns:xl="http://www.w3.org/1999/xlink" version="1.1" xmlns:dc="http://purl.org/dc/elements/1.1/" viewBox="0 0 276 361" width="276" height="361">
  <defs>
    <linearGradient x1="0" x2="1" id="Gradient" gradientUnits="userSpaceOnUse">
      <stop offset="0" stop-color="#f71d69"/>
      <stop offset=".49930103" stop-color="#b66e51"/>
      <stop offset="1" stop-color="#68bc36"/>
    </linearGradient>
    <linearGradient id="Obj_Gradient" xl:href="#Gradient" gradientTransform="translate(133.45499 176.3) scale(27.1)"/>
    <linearGradient x1="0" x2="1" id="Gradient_2" gradientUnits="userSpaceOnUse">
      <stop offset="0" stop-color="#68bc36"/>
      <stop offset=".49766393" stop-color="#52a49b"/>
      <stop offset="1" stop-color="#3a8eed"/>
    </linearGradient>
    <linearGradient id="Obj_Gradient_2" xl:href="#Gradient_2" gradientTransform="translate(133.45499 211.14578) scale(25.6)"/>
    <linearGradient x1="0" x2="1" id="Gradient_3" gradientUnits="userSpaceOnUse">
      <stop offset="0" stop-color="#e5a4ed"/>
      <stop offset="0" stop-color="#ac90ca"/>
      <stop offset="1" stop-color="#6b7ca5"/>
    </linearGradient>
    <linearGradient id="Obj_Gradient_3" xl:href="#Gradient_3" gradientTransform="translate(161.355 211.14578) scale(25.6)"/>
    <linearGradient x1="0" x2="1" id="Gradient_4" gradientUnits="userSpaceOnUse">
      <stop offset="0" stop-color="#e5a4ed"/>
      <stop offset="0" stop-color="#ec83b5"/>
      <stop offset="1" stop-color="#f26077"/>
    </linearGradient>
    <linearGradient id="Obj_Gradient_4" xl:href="#Gradient_4" gradientTransform="translate(189.955 211.15) scale(25.8)"/>
    <linearGradient x1="0" x2="1" id="Gradient_5" gradientUnits="userSpaceOnUse">
      <stop offset="0" stop-color="#8efa00"/>
      <stop offset="0" stop-color="#55c72f"/>
      <stop offset="1" stop-color="#009051"/>
    </linearGradient>
    <linearGradient id="Obj_Gradient_5" xl:href="#Gradient_5" gradientTransform="translate(17.358273 137.01138) rotate(37.88474) scale(122.91207)"/>
  </defs>
  <metadata> Produced by OmniGraffle 7.18.1\n2021-01-04 23:21:31 +0000</metadata>
  <g id="Canvas_1" fill-opacity="1" stroke-dasharray="none" stroke-opacity="1" stroke="none" fill="none">
    <title>Canvas 1</title>
    <g id="Canvas_1_Layer_1">
      <title>Layer 1</title>
      <g id="Group_2">
        <title>Layer_1</title>
        <g id="Group_3">
          <g id="Graphic_18">
            <path d="M 25.953405 190.85525 C 21.915298 139.35525 12.842667 134.85525 5.867755 108.85525 C -.47784177 85.25525 -5.564808 46.555253 12.318238 18.855253 C 40.113 -24.144747 74.20092 19.855253 74.20092 19.855253 C 74.20092 19.855253 128.21716 78.85525 137.65689 81.85525 C 147.09662 84.85525 170.17152 114.85525 199.01514 78.85525 C 227.85876 42.855253 252.50695 45.855253 260.3734 72.85525 C 268.23983 99.85525 250.40923 177.85525 246.2138 193.85525 C 242.01836 209.85525 248.3115 259.85525 255.1291 279.85525 C 261.94668 299.85525 283.4483 361.85525 237.2985 359.85525 C 191.1487 357.85525 52.69931 360.85525 52.69931 360.85525 C 52.69931 360.85525 2.983393 359.05525 11.793808 266.85525 C 19.135821 189.85525 27.526693 210.85525 25.953405 190.85525 Z" fill="#009051" fill-opacity=".10717612"/>
          </g>
          <g id="Graphic_17">
            <circle cx="77.1988" cy="31.355273" r="20.0000419580539" fill="#009051" fill-opacity=".7908475"/>
          </g>
          <g id="Graphic_16">
            <circle cx="17.698796" cy="97.35527" r="13.5000283216864" fill="#4e8f00" fill-opacity=".6555257"/>
          </g>
          <g id="Graphic_15">
            <circle cx="49.106104" cy="84.85525" r="7.5000157342702" fill="#009051" fill-opacity=".5"/>
          </g>
          <g id="Graphic_14">
            <circle cx="254.2155" cy="298.801" r="20.0003464563747" fill="#009051" fill-opacity=".8008589"/>
          </g>
          <g id="Graphic_13">
            <circle cx="11.69879" cy="56.35526" r="7.50001573427021" fill="#009051" fill-opacity=".28616515"/>
          </g>
          <g id="Graphic_12">
            <circle cx="43.19882" cy="314.2992" r="35.5000744755456" fill="#008f00" fill-opacity=".32566743"/>
          </g>
          <g id="Graphic_11">
            <circle cx="136.8915" cy="336.85523" r="24.0000503496645" fill="#4e8f00" fill-opacity=".23926428"/>
          </g>
          <g id="Graphic_10">
            <circle cx="225.1803" cy="201.85525" r="13.0000272727351" fill="#00fa00" fill-opacity=".34318088"/>
          </g>
          <g id="Graphic_9">
            <circle cx="128.1803" cy="84.85525" r="26.0000545454701" fill="#008f00" fill-opacity=".2095923"/>
          </g>
          <g id="Graphic_8">
            <circle cx="27.698795" cy="31.355273" r="12.5000262237837" fill="#009051" fill-opacity=".6927773"/>
          </g>
          <g id="Graphic_7">
            <circle cx="27.698795" cy="253.35527" r="12.5000262237837" fill="#008f00" fill-opacity=".22053498"/>
          </g>
          <g id="Graphic_6">
            <circle cx="252.6803" cy="119.35525" r="12.5000262237837" fill="#4e8f00" fill-opacity=".57967715"/>
          </g>
          <g id="Graphic_5">
            <circle cx="232.6803" cy="331.35525" r="13.5000283216864" fill="#009051" fill-opacity=".8559603"/>
          </g>
          <g id="Graphic_4">
            <circle cx="262.6803" cy="338.35525" r="7.50001573427026" fill="#68bc36" fill-opacity=".587024"/>
          </g>
        </g>
      </g>
      <g id="Group_19">
        <title>Layer_2</title>
        <g id="Group_38">
          <title>Computer</title>
          <g id="Graphic_67">
            <path d="M 116.35499 255.8012 L 234.555 255.8012 C 234.555 255.8012 238.955 255.64606 238.955 251.61233 L 238.955 243.7 L 111.65499 243.7 L 111.65499 253.24134 C 112.35499 254.87035 114.15499 255.87878 116.35499 255.8012" fill="#009051" fill-opacity=".7744205"/>
          </g>
          <g id="Graphic_66">
            <rect x="111.60201" y="156.4" width="127.3" height="87.3" fill="#009051" fill-opacity=".7744205"/>
          </g>
          <g id="Graphic_65">
            <rect x="165.15862" y="255.8054" width="18.792746" height="19.29462" fill="#009051" fill-opacity=".7744205"/>
          </g>
          <g id="Graphic_64">
            <path d="M 135.755 275.1 L 213.155 275.1 L 213.255 279 L 135.755 279 Z" fill="#009051" fill-opacity=".7744205"/>
          </g>
          <g id="Graphic_63">
            <path d="M 174.155 245.8 C 176.255 245.8 177.855 247.4 177.855 249.5 C 177.855 251.6 176.255 253.2 174.155 253.2 C 172.055 253.2 170.455 251.6 170.455 249.5 C 170.455 247.4 172.155 245.8 174.155 245.8" fill="white"/>
          </g>
          <g id="Graphic_62">
            <rect x="115.55499" y="160.4" width="119.5" height="78.4" fill="#f8f8ff"/>
          </g>
          <g id="Graphic_61">
            <path d="M 121.55499 164.4 C 122.55499 164.4 123.45499 165.3 123.45499 166.3 C 123.45499 167.3 122.55499 168.2 121.55499 168.2 C 120.55499 168.2 119.65499 167.3 119.65499 166.3 C 119.65499 165.3 120.55499 164.4 121.55499 164.4" fill="#fa5f5d"/>
          </g>
          <g id="Graphic_60">
            <path d="M 127.95499 164.4 C 128.95499 164.4 129.85499 165.3 129.85499 166.3 C 129.85499 167.3 128.95499 168.2 127.95499 168.2 C 126.95499 168.2 126.05499 167.3 126.05499 166.3 C 126.05499 165.3 126.85499 164.4 127.95499 164.4" fill="#fdbc4e"/>
          </g>
          <g id="Graphic_59">
            <path d="M 134.55499 164.4 C 135.55499 164.4 136.45499 165.3 136.45499 166.3 C 136.45499 167.3 135.55499 168.2 134.55499 168.2 C 133.55499 168.2 132.65499 167.3 132.65499 166.3 C 132.75499 165.3 133.55499 164.4 134.55499 164.4" fill="#37cd58"/>
          </g>
          <g id="Graphic_58">
            <path d="M 160.555 178.1 C 160.455 179.1 159.655 179.9 158.655 179.8 L 135.75499 179.8 C 134.55499 179.8 133.45499 179 133.45499 178.1 L 133.45499 174.6 C 133.45499 173.7 134.55499 172.8 135.75499 172.8 L 158.555 172.8 C 159.555 172.7 160.455 173.5 160.555 174.5 L 160.555 174.6 L 160.555 178.1 Z" fill="url(#Obj_Gradient)"/>
          </g>
          <g id="Graphic_57"/>
          <g id="Graphic_56">
            <path d="M 159.055 215.9 C 159.055 216.9 158.155 217.8 157.155 217.8 L 135.75499 217.8 C 134.55499 217.8 133.45499 216.9 133.45499 215.9 L 133.45499 206.4 C 133.45499 205.4 134.65499 204.5 135.75499 204.5 L 157.055 204.5 C 158.055 204.4 158.955 205.2 159.055 206.3 L 159.055 206.4 L 159.055 215.9 Z" fill="url(#Obj_Gradient_2)"/>
          </g>
          <g id="Graphic_55">
            <path d="M 186.955 215.9 C 186.955 216.9 186.055 217.8 185.055 217.8 L 163.655 217.8 C 162.455 217.8 161.355 216.9 161.355 215.9 L 161.355 206.4 C 161.355 205.4 162.555 204.5 163.655 204.5 L 184.955 204.5 C 185.955 204.4 186.855 205.2 186.955 206.3 L 186.955 206.4 L 186.955 215.9 Z" fill="url(#Obj_Gradient_3)"/>
          </g>
          <g id="Graphic_54">
            <path d="M 215.655 215.9 C 215.555 217 214.655 217.8 213.555 217.8 L 192.255 217.8 C 191.055 217.9 190.155 217 189.955 215.9 L 189.955 206.4 C 190.055 205.2 191.055 204.5 192.255 204.5 L 213.555 204.5 C 214.655 204.4 215.655 205.3 215.755 206.4 Z" fill="url(#Obj_Gradient_4)"/>
          </g>
          <g id="Graphic_53">
            <path d="M 186.955 221.3 C 186.755 221.7 186.455 221.9 186.055 222 C 185.955 222 185.955 222 185.855 221.7 L 162.455 221.7 C 161.955 222 161.255 221.7 161.255 221.3 L 161.255 221 C 161.255 220.6 161.955 220.2 162.455 220.1 L 185.855 220.1 C 186.255 220.2 186.455 220.5 186.555 220.8 C 186.555 220.9 186.555 220.9 186.755 221 Z" fill="#e9edfb"/>
          </g>
          <g id="Graphic_52">
            <path d="M 186.955 224.3 C 186.755 224.7 186.455 225 186.055 225.1 C 186.055 225.1 185.955 225.1 185.955 224.8 L 162.455 224.8 C 161.955 225.1 161.255 224.8 161.255 224.3 L 161.255 224 C 161.255 223.6 161.955 223.3 162.455 223.2 L 185.855 223.2 C 186.255 223.3 186.655 223.6 186.755 224 Z" fill="#e9edfb"/>
          </g>
          <g id="Graphic_51">
            <path d="M 186.955 227.4 C 186.755 227.9 186.455 228.2 186.055 228.3 C 186.055 228.1 186.055 228.1 186.055 227.9 L 162.555 227.9 C 162.155 228.1 161.655 228.1 161.455 227.7 C 161.355 227.6 161.355 227.5 161.355 227.5 L 161.355 227.2 C 161.355 226.8 162.055 226.6 162.555 226.4 L 185.955 226.4 C 186.355 226.5 186.755 226.8 186.855 227.2 Z" fill="#e9edfb"/>
          </g>
          <g id="Graphic_50">
            <path d="M 186.955 230.4 C 186.755 230.9 186.455 231.3 186.055 231.7 L 162.555 231.7 C 162.055 231.3 161.355 230.8 161.355 230.4 L 161.355 230.1 C 161.355 229.7 162.055 229.2 162.555 229.4 L 185.955 229.4 C 186.255 229.3 186.555 229.6 186.655 229.9 C 186.655 230 186.655 230.1 186.655 230.1 C 186.655 230.1 186.655 230.1 186.855 230.2 Z" fill="#e9edfb"/>
          </g>
          <g id="Graphic_49">
            <path d="M 173.955 233.5 C 173.955 233.9 173.755 234 173.255 234 L 162.455 234 C 161.955 234 161.355 233.8 161.355 233.5 L 161.355 233.2 C 161.355 232.8 161.955 232.5 162.455 232.5 L 173.255 232.5 C 173.655 232.5 173.955 232.8 173.955 233.2 Z" fill="#e9edfb"/>
          </g>
          <g id="Graphic_48">
            <path d="M 215.655 221.3 C 215.155 221.7 215.255 222 214.755 221.7 L 191.355 221.7 C 190.955 222 190.555 221.8 190.555 221.4 C 190.555 221.4 190.555 221.4 190.755 221.3 L 190.755 221 C 190.555 220.6 190.855 220.2 191.255 220.1 L 214.655 220.1 C 215.155 220.3 215.055 220.6 215.555 221 L 215.555 221.3 Z" fill="#e9edfb"/>
          </g>
          <g id="Graphic_47">
            <path d="M 215.655 224.3 C 215.155 224.7 215.255 225.1 214.755 224.8 L 191.355 224.8 C 190.855 225.1 190.555 224.8 190.855 224.3 L 190.855 224 C 190.655 223.6 190.955 223.3 191.355 223.2 L 214.755 223.2 C 215.255 223.4 215.155 223.6 215.655 224 Z" fill="#e9edfb"/>
          </g>
          <g id="Graphic_46">
            <path d="M 215.655 227.4 C 215.155 227.8 215.255 228.3 214.755 227.9 L 191.355 227.9 C 190.855 228.2 190.555 227.9 190.855 227.4 L 190.855 227.1 C 190.655 226.7 190.955 226.5 191.355 226.3 L 214.755 226.3 C 215.255 226.5 215.155 226.7 215.655 227.1 Z" fill="#e9edfb"/>
          </g>
          <g id="Graphic_45">
            <path d="M 215.655 230.4 C 215.155 230.8 215.255 231.3 214.755 231.7 L 191.355 231.7 C 190.855 231.2 190.555 230.8 190.855 230.4 L 190.855 230.1 C 190.655 229.9 190.655 229.6 190.855 229.5 C 191.055 229.4 191.155 229.3 191.355 229.4 L 214.855 229.4 C 215.355 229.2 215.255 229.7 215.755 230.1 L 215.755 230.4 Z" fill="#e9edfb"/>
          </g>
          <g id="Graphic_44">
            <path d="M 202.755 233.5 C 202.755 233.9 202.755 234 202.355 234 L 191.455 234 C 190.955 234 190.755 233.8 190.755 233.5 L 190.755 233.2 C 190.755 232.8 191.055 232.5 191.455 232.5 L 202.255 232.5 C 202.755 232.5 202.655 232.8 202.655 233.2 Z" fill="#e9edfb"/>
          </g>
          <g id="Graphic_43">
            <path d="M 158.255 221.3 C 158.555 221.7 158.455 222 157.955 221.7 L 134.45499 221.7 C 134.15499 221.9 133.75499 221.9 133.55499 221.6 C 133.45499 221.5 133.45499 221.4 133.35499 221.3 L 133.35499 221 C 133.55499 220.5 133.85499 220.2 134.35499 220.1 L 157.755 220.1 C 158.255 220.3 158.355 220.6 158.055 221 Z" fill="#e9edfb"/>
          </g>
          <g id="Graphic_42">
            <path d="M 158.255 224.3 C 158.555 224.7 158.455 225.1 157.955 224.8 L 134.45499 224.8 C 133.95499 225.2 133.55499 224.8 133.45499 224.3 L 133.45499 224 C 133.55499 223.6 133.95499 223.3 134.45499 223.2 L 157.855 223.2 C 158.355 223.4 158.455 223.6 158.155 224 Z" fill="#e9edfb"/>
          </g>
          <g id="Graphic_41">
            <path d="M 158.255 227.4 C 158.555 227.8 158.455 228.3 157.955 227.9 L 134.45499 227.9 C 133.95499 228.3 133.55499 227.9 133.45499 227.4 L 133.45499 227.1 C 133.55499 226.7 133.95499 226.5 134.45499 226.3 L 157.855 226.3 C 158.355 226.5 158.455 226.7 158.155 227.1 Z" fill="#e9edfb"/>
          </g>
          <g id="Graphic_40">
            <path d="M 151.255 229.4 L 157.955 229.4 C 158.455 229.2 158.555 229.7 158.255 230.1 L 158.255 230.4 C 158.555 230.8 158.455 231.3 157.955 231.7 L 134.45499 231.7 C 133.95499 231.4 133.65499 230.9 133.45499 230.4 L 133.45499 230.1 C 133.55499 229.6 133.95499 229.3 134.45499 229.4 L 151.255 229.4" fill="#e9edfb"/>
          </g>
          <g id="Graphic_39">
            <path d="M 146.655 233.5 C 146.655 233.9 146.455 234 145.955 234 L 134.35499 234 C 133.85499 234 133.45499 233.8 133.45499 233.5 L 133.45499 233.2 C 133.55499 232.8 133.95499 232.5 134.35499 232.5 L 145.955 232.5 C 146.355 232.5 146.655 232.8 146.655 233.1 C 146.655 233.1 146.655 233.1 146.655 233.2 Z" fill="#e9edfb"/>
          </g>
        </g>
        <g id="Group_20">
          <g id="Graphic_27">
            <path d="M 96.46231 231.8 C 96.46231 233.9 94.86231 235.5 92.76231 235.5 L 38.962306 235.5 C 36.962306 235.5 35.262306 233.9 35.262306 231.8 L 35.262306 117.7 C 35.262306 115.7 36.862306 114 38.962306 114 L 92.76231 114 C 94.76231 114 96.46231 115.6 96.46231 117.7 Z" fill="url(#Obj_Gradient_5)"/>
          </g>
          <g id="Graphic_26">
            <rect x="41.462306" y="129.9" width="49.5" height="90.3" fill="white"/>
          </g>
          <g id="Graphic_25">
            <path d="M 41.562306 220.3 L 41.562306 130.1 L 74.86231 130 L 55.062306 220.2 Z" fill="white"/>
          </g>
          <g id="Graphic_24">
            <path d="M 62.162306 122.9 L 69.46231 122.9 C 69.96231 122.9 70.46231 123.3 70.46231 123.9 C 70.46231 124.4 70.06231 124.9 69.46231 124.9 L 62.162306 124.9 C 61.662306 124.9 61.162306 124.5 61.162306 123.9 C 61.162306 123.3 61.562306 122.9 62.162306 122.9 Z" fill="white"/>
            <path d="M 62.162306 122.9 L 69.46231 122.9 C 69.96231 122.9 70.46231 123.3 70.46231 123.9 C 70.46231 124.4 70.06231 124.9 69.46231 124.9 L 62.162306 124.9 C 61.662306 124.9 61.162306 124.5 61.162306 123.9 C 61.162306 123.3 61.562306 122.9 62.162306 122.9 Z" stroke="white" stroke-linecap="butt" stroke-linejoin="round" stroke-width="1"/>
          </g>
          <g id="Graphic_23">
            <circle cx="65.862306" cy="119.4" r="0.90000188811242" fill="white"/>
          </g>
          <g id="Graphic_22"/>
          <g id="Graphic_21">
            <circle cx="65.862306" cy="227.7" r="2.90000608391781" fill="white"/>
            <circle cx="65.862306" cy="227.7" r="2.90000608391781" stroke="white" stroke-linecap="butt" stroke-linejoin="round" stroke-width="2"/>
          </g>
        </g>
      </g>
    </g>
  </g>
</svg>
