<?xml version="1.0" encoding="UTF-8" standalone="no"?>
<!DOCTYPE svg PUBLIC "-//W3C//DTD SVG 1.1//EN" "http://www.w3.org/Graphics/SVG/1.1/DTD/svg11.dtd">
<svg xmlns="http://www.w3.org/2000/svg" xmlns:xl="http://www.w3.org/1999/xlink" version="1.1" xmlns:dc="http://purl.org/dc/elements/1.1/" viewBox="0 0 418 361" width="418" height="361">
  <defs>
    <linearGradient x1="0" x2="1" id="Gradient" gradientUnits="userSpaceOnUse">
      <stop offset="0" stop-color="#f71d69"/>
      <stop offset=".49930103" stop-color="#b66e51"/>
      <stop offset="1" stop-color="#68bc36"/>
    </linearGradient>
    <linearGradient id="Obj_Gradient" xl:href="#Gradient" gradientTransform="translate(264.6 188.94475) scale(27.1)"/>
    <linearGradient x1="0" x2="1" id="Gradient_2" gradientUnits="userSpaceOnUse">
      <stop offset="0" stop-color="#68bc36"/>
      <stop offset=".49766393" stop-color="#52a49b"/>
      <stop offset="1" stop-color="#3a8eed"/>
    </linearGradient>
    <linearGradient id="Obj_Gradient_2" xl:href="#Gradient_2" gradientTransform="translate(264.6 223.79053) scale(25.6)"/>
    <linearGradient x1="0" x2="1" id="Gradient_3" gradientUnits="userSpaceOnUse">
      <stop offset="0" stop-color="#e5a4ed"/>
      <stop offset="0" stop-color="#ac90ca"/>
      <stop offset="1" stop-color="#6b7ca5"/>
    </linearGradient>
    <linearGradient id="Obj_Gradient_3" xl:href="#Gradient_3" gradientTransform="translate(292.5 223.79053) scale(25.6)"/>
    <linearGradient x1="0" x2="1" id="Gradient_4" gradientUnits="userSpaceOnUse">
      <stop offset="0" stop-color="#e5a4ed"/>
      <stop offset="0" stop-color="#ec83b5"/>
      <stop offset="1" stop-color="#f26077"/>
    </linearGradient>
    <linearGradient id="Obj_Gradient_4" xl:href="#Gradient_4" gradientTransform="translate(321.1 223.79475) scale(25.8)"/>
    <linearGradient x1="0" x2="1" id="Gradient_5" gradientUnits="userSpaceOnUse">
      <stop offset="0" stop-color="#68bc36"/>
      <stop offset=".49938" stop-color="#5ba61b"/>
      <stop offset="1" stop-color="#4e8f00"/>
    </linearGradient>
    <linearGradient id="Obj_Gradient_5" xl:href="#Gradient_5" gradientTransform="translate(217.34012 46.59342) rotate(80.27449) scale(97.19957)"/>
    <linearGradient x1="0" x2="1" id="Gradient_6" gradientUnits="userSpaceOnUse">
      <stop offset="0" stop-color="#68bc36"/>
      <stop offset=".49970615" stop-color="#3ea61b"/>
      <stop offset="1" stop-color="#008f00"/>
    </linearGradient>
    <linearGradient id="Obj_Gradient_6" xl:href="#Gradient_6" gradientTransform="translate(171.9815 120.18174) rotate(-.26770858) scale(58.63766)"/>
    <linearGradient x1="0" x2="1" id="Gradient_7" gradientUnits="userSpaceOnUse">
      <stop offset="0" stop-color="#68bc36"/>
      <stop offset="0" stop-color="#5ba61b"/>
      <stop offset="1" stop-color="#4e8f00"/>
    </linearGradient>
    <linearGradient id="Obj_Gradient_7" xl:href="#Gradient_7" gradientTransform="translate(185.78694 41.82792) rotate(80.27449) scale(68.82275)"/>
    <linearGradient x1="0" x2="1" id="Gradient_8" gradientUnits="userSpaceOnUse">
      <stop offset="0" stop-color="#8efa00"/>
      <stop offset="0" stop-color="#55c700"/>
      <stop offset="1" stop-color="#008f00"/>
    </linearGradient>
    <linearGradient id="Obj_Gradient_8" xl:href="#Gradient_8" gradientTransform="translate(189.62478 100.07015) rotate(80.27449) scale(23.385287)"/>
    <linearGradient x1="0" x2="1" id="Gradient_9" gradientUnits="userSpaceOnUse">
      <stop offset="0" stop-color="#8efa00"/>
      <stop offset="0" stop-color="#55c72f"/>
      <stop offset="1" stop-color="#009051"/>
    </linearGradient>
    <linearGradient id="Obj_Gradient_9" xl:href="#Gradient_9" gradientTransform="translate(86.09597 185.15613) rotate(37.88474) scale(122.91207)"/>
  </defs>
  <metadata> Produced by OmniGraffle 7.18.1\n2021-01-04 22:58:31 +0000</metadata>
  <g id="Canvas_1" fill-opacity="1" stroke-dasharray="none" stroke-opacity="1" stroke="none" fill="none">
    <title>Canvas 1</title>
    <g id="Canvas_1_Layer_1">
      <title>Layer 1</title>
      <g id="Group_2">
        <title>Layer_1</title>
        <g id="Group_3">
          <g id="Graphic_18">
            <path d="M 39.979414 191 C 33.75899 139.5 19.783235 135 9.038868 109 C -.736082 85.4 -8.572199 46.7 18.975388 19 C 61.79129 -24 114.30135 20 114.30135 20 C 114.30135 20 197.5096 79 212.05086 82 C 226.5921 85 262.13738 115 306.56897 79 C 351.00056 43 388.9694 46 401.0871 73 C 413.2048 100 385.738 178 379.2752 194 C 372.81244 210 382.5066 260 393.0086 280 C 403.51063 300 436.63236 362 365.5418 360 C 294.45126 358 81.17962 361 81.17962 361 C 81.17962 361 4.595709 359.2 18.167541 267 C 29.4774 190 42.402955 211 39.979414 191 Z" fill="#009051" fill-opacity=".10717612"/>
          </g>
          <g id="Graphic_17">
            <circle cx="89.50002" cy="85" r="20.0000419580539" fill="#009051" fill-opacity=".7908475"/>
          </g>
          <g id="Graphic_16">
            <circle cx="47.577766" cy="131.64476" r="13.5000283216864" fill="#4e8f00" fill-opacity=".6555257"/>
          </g>
          <g id="Graphic_15">
            <circle cx="38.48884" cy="92.64475" r="7.5000157342702" fill="#009051" fill-opacity=".5"/>
          </g>
          <g id="Graphic_14">
            <circle cx="398.02403" cy="298.94573" r="20.0003464563747" fill="#009051" fill-opacity=".8008589"/>
          </g>
          <g id="Graphic_13">
            <circle cx="14.488807" cy="54.144754" r="7.50001573427021" fill="#009051" fill-opacity=".28616515"/>
          </g>
          <g id="Graphic_12">
            <circle cx="69.57779" cy="298.94573" r="35.5000744755456" fill="#008f00" fill-opacity=".32566743"/>
          </g>
          <g id="Graphic_11">
            <circle cx="280.70003" cy="336.99998" r="24.0000503496645" fill="#4e8f00" fill-opacity=".23926428"/>
          </g>
          <g id="Graphic_10">
            <circle cx="368.98884" cy="202" r="13.0000272727351" fill="#00fa00" fill-opacity=".34318088"/>
          </g>
          <g id="Graphic_9">
            <circle cx="271.98884" cy="85" r="26.0000545454701" fill="#008f00" fill-opacity=".2095923"/>
          </g>
          <g id="Graphic_8">
            <circle cx="33.488835" cy="15.5" r="12.5000262237837" fill="#009051" fill-opacity=".6927773"/>
          </g>
          <g id="Graphic_7">
            <circle cx="61.50001" cy="226.14476" r="12.5000262237837" fill="#008f00" fill-opacity=".22053498"/>
          </g>
          <g id="Graphic_6">
            <circle cx="396.48884" cy="119.5" r="12.5000262237837" fill="#4e8f00" fill-opacity=".57967715"/>
          </g>
          <g id="Graphic_5">
            <circle cx="376.48884" cy="331.5" r="13.5000283216864" fill="#009051" fill-opacity=".8559603"/>
          </g>
          <g id="Graphic_4">
            <circle cx="406.48884" cy="338.5" r="7.50001573427028" fill="#68bc36" fill-opacity=".587024"/>
          </g>
        </g>
      </g>
      <g id="Group_19">
        <title>Layer_2</title>
        <g id="Group_38">
          <title>Computer</title>
          <g id="Graphic_67">
            <path d="M 247.5 268.44595 L 365.7 268.44595 C 365.7 268.44595 370.1 268.2908 370.1 264.25708 L 370.1 256.34475 L 242.8 256.34475 L 242.8 265.8861 C 243.5 267.5151 245.3 268.52353 247.5 268.44595" fill="#009051" fill-opacity=".7744205"/>
          </g>
          <g id="Graphic_66">
            <rect x="242.74702" y="169.04475" width="127.3" height="87.3" fill="#009051" fill-opacity=".7744205"/>
          </g>
          <g id="Graphic_65">
            <rect x="296.30363" y="268.45013" width="18.792746" height="19.29462" fill="#009051" fill-opacity=".7744205"/>
          </g>
          <g id="Graphic_64">
            <path d="M 266.9 287.74475 L 344.3 287.74475 L 344.4 291.64475 L 266.9 291.64475 Z" fill="#009051" fill-opacity=".7744205"/>
          </g>
          <g id="Graphic_63">
            <path d="M 305.3 258.44475 C 307.4 258.44475 309 260.04475 309 262.14475 C 309 264.24475 307.4 265.84475 305.3 265.84475 C 303.2 265.84475 301.6 264.24475 301.6 262.14475 C 301.6 260.04475 303.3 258.44475 305.3 258.44475" fill="white"/>
          </g>
          <g id="Graphic_62">
            <rect x="246.7" y="173.04475" width="119.5" height="78.4" fill="#f8f8ff"/>
          </g>
          <g id="Graphic_61">
            <path d="M 252.7 177.04475 C 253.7 177.04475 254.6 177.94475 254.6 178.94475 C 254.6 179.94475 253.7 180.84475 252.7 180.84475 C 251.7 180.84475 250.8 179.94475 250.8 178.94475 C 250.8 177.94475 251.7 177.04475 252.7 177.04475" fill="#fa5f5d"/>
          </g>
          <g id="Graphic_60">
            <path d="M 259.1 177.04475 C 260.1 177.04475 261 177.94475 261 178.94475 C 261 179.94475 260.1 180.84475 259.1 180.84475 C 258.1 180.84475 257.2 179.94475 257.2 178.94475 C 257.2 177.94475 258 177.04475 259.1 177.04475" fill="#fdbc4e"/>
          </g>
          <g id="Graphic_59">
            <path d="M 265.7 177.04475 C 266.7 177.04475 267.6 177.94475 267.6 178.94475 C 267.6 179.94475 266.7 180.84475 265.7 180.84475 C 264.7 180.84475 263.8 179.94475 263.8 178.94475 C 263.9 177.94475 264.7 177.04475 265.7 177.04475" fill="#37cd58"/>
          </g>
          <g id="Graphic_58">
            <path d="M 291.7 190.74475 C 291.6 191.74475 290.8 192.54475 289.8 192.44475 L 266.9 192.44475 C 265.7 192.44475 264.6 191.64475 264.6 190.74475 L 264.6 187.24475 C 264.6 186.34475 265.7 185.44475 266.9 185.44475 L 289.7 185.44475 C 290.7 185.34475 291.6 186.14475 291.7 187.14475 L 291.7 187.24475 L 291.7 190.74475 Z" fill="url(#Obj_Gradient)"/>
          </g>
          <g id="Graphic_57"/>
          <g id="Graphic_56">
            <path d="M 290.2 228.54475 C 290.2 229.54475 289.3 230.44475 288.3 230.44475 L 266.9 230.44475 C 265.7 230.44475 264.6 229.54475 264.6 228.54475 L 264.6 219.04475 C 264.6 218.04475 265.8 217.14475 266.9 217.14475 L 288.2 217.14475 C 289.2 217.04475 290.1 217.84475 290.2 218.94475 L 290.2 219.04475 L 290.2 228.54475 Z" fill="url(#Obj_Gradient_2)"/>
          </g>
          <g id="Graphic_55">
            <path d="M 318.1 228.54475 C 318.1 229.54475 317.2 230.44475 316.2 230.44475 L 294.8 230.44475 C 293.6 230.44475 292.5 229.54475 292.5 228.54475 L 292.5 219.04475 C 292.5 218.04475 293.7 217.14475 294.8 217.14475 L 316.1 217.14475 C 317.1 217.04475 318 217.84475 318.1 218.94475 L 318.1 219.04475 L 318.1 228.54475 Z" fill="url(#Obj_Gradient_3)"/>
          </g>
          <g id="Graphic_54">
            <path d="M 346.8 228.54475 C 346.7 229.64475 345.8 230.44475 344.7 230.44475 L 323.4 230.44475 C 322.2 230.54475 321.3 229.64475 321.1 228.54475 L 321.1 219.04475 C 321.2 217.84475 322.2 217.14475 323.4 217.14475 L 344.7 217.14475 C 345.8 217.04475 346.8 217.94475 346.9 219.04475 Z" fill="url(#Obj_Gradient_4)"/>
          </g>
          <g id="Graphic_53">
            <path d="M 318.1 233.94475 C 317.9 234.34475 317.6 234.54475 317.2 234.64475 C 317.1 234.64475 317.1 234.64475 317 234.34475 L 293.6 234.34475 C 293.1 234.64475 292.4 234.34475 292.4 233.94475 L 292.4 233.64475 C 292.4 233.24475 293.1 232.84475 293.6 232.74475 L 317 232.74475 C 317.4 232.84475 317.6 233.14475 317.7 233.44475 C 317.7 233.54475 317.7 233.54475 317.9 233.64475 Z" fill="#e9edfb"/>
          </g>
          <g id="Graphic_52">
            <path d="M 318.1 236.94475 C 317.9 237.34475 317.6 237.64475 317.2 237.74475 C 317.2 237.74475 317.1 237.74475 317.1 237.44475 L 293.6 237.44475 C 293.1 237.74475 292.4 237.44475 292.4 236.94475 L 292.4 236.64475 C 292.4 236.24475 293.1 235.94475 293.6 235.84475 L 317 235.84475 C 317.4 235.94475 317.8 236.24475 317.9 236.64475 Z" fill="#e9edfb"/>
          </g>
          <g id="Graphic_51">
            <path d="M 318.1 240.04475 C 317.9 240.54475 317.6 240.84475 317.2 240.94475 C 317.2 240.74475 317.2 240.74475 317.2 240.54475 L 293.7 240.54475 C 293.3 240.74475 292.8 240.74475 292.6 240.34475 C 292.5 240.24475 292.5 240.14475 292.5 240.14475 L 292.5 239.84475 C 292.5 239.44475 293.2 239.24475 293.7 239.04475 L 317.1 239.04475 C 317.5 239.14475 317.9 239.44475 318 239.84475 Z" fill="#e9edfb"/>
          </g>
          <g id="Graphic_50">
            <path d="M 318.1 243.04475 C 317.9 243.54475 317.6 243.94475 317.2 244.34475 L 293.7 244.34475 C 293.2 243.94475 292.5 243.44475 292.5 243.04475 L 292.5 242.74475 C 292.5 242.34475 293.2 241.84475 293.7 242.04475 L 317.1 242.04475 C 317.4 241.94475 317.7 242.24475 317.8 242.54475 C 317.8 242.64475 317.8 242.74475 317.8 242.74475 C 317.8 242.74475 317.8 242.74475 318 242.84475 Z" fill="#e9edfb"/>
          </g>
          <g id="Graphic_49">
            <path d="M 305.1 246.14475 C 305.1 246.54475 304.9 246.64475 304.4 246.64475 L 293.6 246.64475 C 293.1 246.64475 292.5 246.44475 292.5 246.14475 L 292.5 245.84475 C 292.5 245.44475 293.1 245.14475 293.6 245.14475 L 304.4 245.14475 C 304.8 245.14475 305.1 245.44475 305.1 245.84475 Z" fill="#e9edfb"/>
          </g>
          <g id="Graphic_48">
            <path d="M 346.8 233.94475 C 346.3 234.34475 346.4 234.64475 345.9 234.34475 L 322.5 234.34475 C 322.1 234.64475 321.7 234.44475 321.7 234.04475 C 321.7 234.04475 321.7 234.04475 321.9 233.94475 L 321.9 233.64475 C 321.7 233.24475 322 232.84475 322.4 232.74475 L 345.8 232.74475 C 346.3 232.94475 346.2 233.24475 346.7 233.64475 L 346.7 233.94475 Z" fill="#e9edfb"/>
          </g>
          <g id="Graphic_47">
            <path d="M 346.8 236.94475 C 346.3 237.34475 346.4 237.74475 345.9 237.44475 L 322.5 237.44475 C 322 237.74475 321.7 237.44475 322 236.94475 L 322 236.64475 C 321.8 236.24475 322.1 235.94475 322.5 235.84475 L 345.9 235.84475 C 346.4 236.04475 346.3 236.24475 346.8 236.64475 Z" fill="#e9edfb"/>
          </g>
          <g id="Graphic_46">
            <path d="M 346.8 240.04475 C 346.3 240.44475 346.4 240.94475 345.9 240.54475 L 322.5 240.54475 C 322 240.84475 321.7 240.54475 322 240.04475 L 322 239.74475 C 321.8 239.34475 322.1 239.14475 322.5 238.94475 L 345.9 238.94475 C 346.4 239.14475 346.3 239.34475 346.8 239.74475 Z" fill="#e9edfb"/>
          </g>
          <g id="Graphic_45">
            <path d="M 346.8 243.04475 C 346.3 243.44475 346.4 243.94475 345.9 244.34475 L 322.5 244.34475 C 322 243.84475 321.7 243.44475 322 243.04475 L 322 242.74475 C 321.8 242.54475 321.8 242.24475 322 242.14475 C 322.2 242.04475 322.3 241.94475 322.5 242.04475 L 346 242.04475 C 346.5 241.84475 346.4 242.34475 346.9 242.74475 L 346.9 243.04475 Z" fill="#e9edfb"/>
          </g>
          <g id="Graphic_44">
            <path d="M 333.9 246.14475 C 333.9 246.54475 333.9 246.64475 333.5 246.64475 L 322.6 246.64475 C 322.1 246.64475 321.9 246.44475 321.9 246.14475 L 321.9 245.84475 C 321.9 245.44475 322.2 245.14475 322.6 245.14475 L 333.4 245.14475 C 333.9 245.14475 333.8 245.44475 333.8 245.84475 Z" fill="#e9edfb"/>
          </g>
          <g id="Graphic_43">
            <path d="M 289.4 233.94475 C 289.7 234.34475 289.6 234.64475 289.1 234.34475 L 265.6 234.34475 C 265.3 234.54475 264.9 234.54475 264.7 234.24475 C 264.6 234.14475 264.6 234.04475 264.5 233.94475 L 264.5 233.64475 C 264.7 233.14475 265 232.84475 265.5 232.74475 L 288.9 232.74475 C 289.4 232.94475 289.5 233.24475 289.2 233.64475 Z" fill="#e9edfb"/>
          </g>
          <g id="Graphic_42">
            <path d="M 289.4 236.94475 C 289.7 237.34475 289.6 237.74475 289.1 237.44475 L 265.6 237.44475 C 265.1 237.84475 264.7 237.44475 264.6 236.94475 L 264.6 236.64475 C 264.7 236.24475 265.1 235.94475 265.6 235.84475 L 289 235.84475 C 289.5 236.04475 289.6 236.24475 289.3 236.64475 Z" fill="#e9edfb"/>
          </g>
          <g id="Graphic_41">
            <path d="M 289.4 240.04475 C 289.7 240.44475 289.6 240.94475 289.1 240.54475 L 265.6 240.54475 C 265.1 240.94475 264.7 240.54475 264.6 240.04475 L 264.6 239.74475 C 264.7 239.34475 265.1 239.14475 265.6 238.94475 L 289 238.94475 C 289.5 239.14475 289.6 239.34475 289.3 239.74475 Z" fill="#e9edfb"/>
          </g>
          <g id="Graphic_40">
            <path d="M 282.4 242.04475 L 289.1 242.04475 C 289.6 241.84475 289.7 242.34475 289.4 242.74475 L 289.4 243.04475 C 289.7 243.44475 289.6 243.94475 289.1 244.34475 L 265.6 244.34475 C 265.1 244.04475 264.8 243.54475 264.6 243.04475 L 264.6 242.74475 C 264.7 242.24475 265.1 241.94475 265.6 242.04475 L 282.4 242.04475" fill="#e9edfb"/>
          </g>
          <g id="Graphic_39">
            <path d="M 277.8 246.14475 C 277.8 246.54475 277.6 246.64475 277.1 246.64475 L 265.5 246.64475 C 265 246.64475 264.6 246.44475 264.6 246.14475 L 264.6 245.84475 C 264.7 245.44475 265.1 245.14475 265.5 245.14475 L 277.1 245.14475 C 277.5 245.14475 277.8 245.44475 277.8 245.74475 C 277.8 245.74475 277.8 245.74475 277.8 245.84475 Z" fill="#e9edfb"/>
          </g>
        </g>
        <g id="Group_28">
          <g id="Graphic_37">
            <path d="M 183.2 98.17796 L 221.8405 52.444747 L 267.9 90.91385 L 229.2595 136.54475 Z" fill="url(#Obj_Gradient_5)"/>
          </g>
          <g id="Graphic_36">
            <path d="M 172.1 104.60664 L 180.6 94.54475 L 230.5 135.48285 L 222 145.54475 Z" fill="url(#Obj_Gradient_6)"/>
          </g>
          <g id="Graphic_35">
            <path d="M 237.6 96.14475 C 234.4 96.14475 196.4 106.84475 196.4 106.84475 L 225.9 131.84475 L 231.1 118.84475 C 231.1 118.84475 238.6 96.14475 237.6 96.14475 Z" fill="white"/>
          </g>
          <g id="Graphic_34">
            <rect x="160.6" y="46.144747" width="62" height="59.2" fill="url(#Obj_Gradient_7)"/>
          </g>
          <g id="Graphic_33"/>
          <g id="Graphic_32">
            <rect x="160.6" y="105.04475" width="62" height="13.1" fill="url(#Obj_Gradient_8)"/>
          </g>
          <g id="Graphic_31">
            <path d="M 197.3 104.84475 L 213.9 76.94475 L 222.6 89.04475 L 222.6 105.34475 L 215.8 105.34475 Z" fill="white"/>
          </g>
          <g id="Graphic_30">
            <path d="M 181.1 104.84475 L 200.9 78.44475 L 216.5 105.04475 Z" fill="white"/>
          </g>
          <g id="Graphic_29">
            <path d="M 181.9 57.44475 C 184.5 57.44475 186.6 59.54475 186.6 62.14475 C 186.6 64.74475 184.5 66.84475 181.9 66.84475 C 179.3 66.84475 177.2 64.74475 177.2 62.14475 C 177.2 59.54475 179.3 57.44475 181.9 57.44475" fill="white"/>
          </g>
        </g>
        <g id="Group_20">
          <g id="Graphic_27">
            <path d="M 165.2 279.94475 C 165.2 282.04475 163.6 283.64475 161.5 283.64475 L 107.7 283.64475 C 105.7 283.64475 104 282.04475 104 279.94475 L 104 165.84475 C 104 163.84475 105.6 162.14475 107.7 162.14475 L 161.5 162.14475 C 163.5 162.14475 165.2 163.74475 165.2 165.84475 Z" fill="url(#Obj_Gradient_9)"/>
          </g>
          <g id="Graphic_26">
            <rect x="110.2" y="178.04475" width="49.5" height="90.3" fill="white"/>
          </g>
          <g id="Graphic_25">
            <path d="M 110.3 268.44475 L 110.3 178.24475 L 143.6 178.14475 L 123.8 268.34475 Z" fill="white"/>
          </g>
          <g id="Graphic_24">
            <path d="M 130.9 171.04475 L 138.2 171.04475 C 138.7 171.04475 139.2 171.44475 139.2 172.04475 C 139.2 172.54475 138.8 173.04475 138.2 173.04475 L 130.9 173.04475 C 130.4 173.04475 129.9 172.64475 129.9 172.04475 C 129.9 171.44475 130.3 171.04475 130.9 171.04475 Z" fill="white"/>
            <path d="M 130.9 171.04475 L 138.2 171.04475 C 138.7 171.04475 139.2 171.44475 139.2 172.04475 C 139.2 172.54475 138.8 173.04475 138.2 173.04475 L 130.9 173.04475 C 130.4 173.04475 129.9 172.64475 129.9 172.04475 C 129.9 171.44475 130.3 171.04475 130.9 171.04475 Z" stroke="white" stroke-linecap="butt" stroke-linejoin="round" stroke-width="1"/>
          </g>
          <g id="Graphic_23">
            <circle cx="134.6" cy="167.54475" r="0.900001888112423" fill="white"/>
          </g>
          <g id="Graphic_22"/>
          <g id="Graphic_21">
            <circle cx="134.6" cy="275.84475" r="2.9000060839178" fill="white"/>
            <circle cx="134.6" cy="275.84475" r="2.9000060839178" stroke="white" stroke-linecap="butt" stroke-linejoin="round" stroke-width="2"/>
          </g>
        </g>
      </g>
    </g>
  </g>
</svg>
