<?xml version="1.0" encoding="UTF-8" standalone="no"?>
<!DOCTYPE svg PUBLIC "-//W3C//DTD SVG 1.1//EN" "http://www.w3.org/Graphics/SVG/1.1/DTD/svg11.dtd">
<svg xmlns="http://www.w3.org/2000/svg" xmlns:xl="http://www.w3.org/1999/xlink" xmlns:dc="http://purl.org/dc/elements/1.1/" version="1.1" viewBox="0 0 500 361" width="500" height="361">
  <defs>
    <linearGradient x1="0" x2="1" id="Gradient" gradientUnits="userSpaceOnUse">
      <stop offset="0" stop-color="#f71d69"/>
      <stop offset=".49930103" stop-color="#b66e51"/>
      <stop offset="1" stop-color="#68bc36"/>
    </linearGradient>
    <linearGradient id="Obj_Gradient" xl:href="#Gradient" gradientTransform="translate(352.353 129.9) scale(27.1)"/>
    <linearGradient x1="0" x2="1" id="Gradient_2" gradientUnits="userSpaceOnUse">
      <stop offset="0" stop-color="#68bc36"/>
      <stop offset=".49766393" stop-color="#52a49b"/>
      <stop offset="1" stop-color="#3a8eed"/>
    </linearGradient>
    <linearGradient id="Obj_Gradient_2" xl:href="#Gradient_2" gradientTransform="translate(352.353 164.74578) scale(25.6)"/>
    <linearGradient x1="0" x2="1" id="Gradient_3" gradientUnits="userSpaceOnUse">
      <stop offset="0" stop-color="#e5a4ed"/>
      <stop offset="0" stop-color="#ac90ca"/>
      <stop offset="1" stop-color="#6b7ca5"/>
    </linearGradient>
    <linearGradient id="Obj_Gradient_3" xl:href="#Gradient_3" gradientTransform="translate(380.253 164.74578) scale(25.6)"/>
    <linearGradient x1="0" x2="1" id="Gradient_4" gradientUnits="userSpaceOnUse">
      <stop offset="0" stop-color="#e5a4ed"/>
      <stop offset="0" stop-color="#ec83b5"/>
      <stop offset="1" stop-color="#f26077"/>
    </linearGradient>
    <linearGradient id="Obj_Gradient_4" xl:href="#Gradient_4" gradientTransform="translate(408.853 164.75) scale(25.8)"/>
    <linearGradient x1="0" x2="1" id="Gradient_5" gradientUnits="userSpaceOnUse">
      <stop offset="0" stop-color="#8efa00"/>
      <stop offset="0" stop-color="#55c72f"/>
      <stop offset="1" stop-color="#009051"/>
    </linearGradient>
    <linearGradient id="Obj_Gradient_5" xl:href="#Gradient_5" gradientTransform="translate(208.09597 91.01138) rotate(37.88474) scale(122.91207)"/>
  </defs>
  <metadata> Produced by OmniGraffle 7.18.1\n2021-01-07 16:53:41 +0000</metadata>
  <g id="Canvas_1" stroke-dasharray="none" fill="none" stroke-opacity="1" fill-opacity="1" stroke="none">
    <title>Canvas 1</title>
    <g id="Canvas_1_Layer_1">
      <title>Layer 1</title>
      <g id="Group_2">
        <title>Layer_1</title>
        <g id="Group_3">
          <g id="Graphic_18">
            <path d="M 49.35146 139.36435 C 41.67283 101.75856 24.420856 98.47261 11.157776 79.48716 C -.9086356 62.25421 -10.581709 33.995097 23.423632 13.768288 C 76.27651 -17.630728 141.09607 14.498498 141.09607 14.498498 C 141.09607 14.498498 243.81015 57.58087 261.76018 59.7715 C 279.71022 61.96213 323.58808 83.86842 378.4354 57.58087 C 433.2827 31.29332 480.15225 33.48395 495.1106 53.19961 C 510.069 72.91527 476.16336 129.87163 468.18557 141.55498 C 460.2078 153.23834 472.17446 189.74882 485.1384 204.35302 C 498.1023 218.9572 538.9885 264.2302 451.23276 262.7698 C 363.47704 261.30937 100.20988 263.5 100.20988 263.5 C 100.20988 263.5 5.673043 262.18562 22.426408 194.8603 C 36.387544 138.63414 52.34313 153.96855 49.35146 139.36435 Z" fill="#009051" fill-opacity=".10717612"/>
          </g>
          <g id="Graphic_17">
            <circle cx="203.8494" cy="89.85526" r="20.0000419580539" fill="#009051" fill-opacity=".7908475"/>
          </g>
          <g id="Graphic_16">
            <circle cx="126.39149" cy="75.00001" r="13.5000283216864" fill="#4e8f00" fill-opacity=".6555257"/>
          </g>
          <g id="Graphic_15">
            <circle cx="157.50002" cy="97.50001" r="7.50001573427021" fill="#009051" fill-opacity=".5"/>
          </g>
          <g id="Graphic_14">
            <circle cx="472.5018" cy="232.5018" r="20.0003464563747" fill="#009051" fill-opacity=".8008589"/>
          </g>
          <g id="Graphic_13">
            <circle cx="108.00001" cy="23.000008" r="7.50001573427021" fill="#009051" fill-opacity=".28616515"/>
          </g>
          <g id="Graphic_12">
            <circle cx="172.49996" cy="191.50004" r="35.5000744755456" fill="#008f00" fill-opacity=".32566743"/>
          </g>
          <g id="Graphic_11">
            <circle cx="232.00002" cy="236.50002" r="24.0000503496645" fill="#4e8f00" fill-opacity=".23926428"/>
          </g>
          <g id="Graphic_10">
            <circle cx="320.5" cy="137.00001" r="13.0000272727351" fill="#00fa00" fill-opacity=".34318088"/>
          </g>
          <g id="Graphic_9">
            <circle cx="402.50003" cy="116.00003" r="26.00005454547" fill="#008f00" fill-opacity=".2095923"/>
          </g>
          <g id="Graphic_8">
            <circle cx="152.50001" cy="45.00001" r="12.5000262237837" fill="#009051" fill-opacity=".6927773"/>
          </g>
          <g id="Graphic_7">
            <circle cx="118.00001" cy="240.0036" r="12.5000262237837" fill="#008f00" fill-opacity=".22053498"/>
          </g>
          <g id="Graphic_6">
            <circle cx="465" cy="89.85526" r="12.5000262237837" fill="#4e8f00" fill-opacity=".57967715"/>
          </g>
          <g id="Graphic_5">
            <circle cx="304.5" cy="226.00001" r="13.5000283216864" fill="#009051" fill-opacity=".8559603"/>
          </g>
          <g id="Graphic_4">
            <circle cx="326" cy="249.5" r="7.50001573427026" fill="#68bc36" fill-opacity=".587024"/>
          </g>
        </g>
      </g>
      <g id="Group_19">
        <title>Layer_2</title>
        <g id="Group_38">
          <title>Computer</title>
          <g id="Graphic_67">
            <path d="M 335.253 209.4012 L 453.453 209.4012 C 453.453 209.4012 457.853 209.24606 457.853 205.21233 L 457.853 197.3 L 330.553 197.3 L 330.553 206.84134 C 331.253 208.47035 333.053 209.47878 335.253 209.4012" fill="#009051" fill-opacity=".7744205"/>
          </g>
          <g id="Graphic_66">
            <rect x="330.5" y="110" width="127.3" height="87.3" fill="#009051" fill-opacity=".7744205"/>
          </g>
          <g id="Graphic_65">
            <rect x="384.0566" y="209.40538" width="18.792746" height="19.29462" fill="#009051" fill-opacity=".7744205"/>
          </g>
          <g id="Graphic_64">
            <path d="M 354.653 228.7 L 432.053 228.7 L 432.153 232.6 L 354.653 232.6 Z" fill="#009051" fill-opacity=".7744205"/>
          </g>
          <g id="Graphic_63">
            <path d="M 393.053 199.4 C 395.153 199.4 396.753 201 396.753 203.1 C 396.753 205.2 395.153 206.8 393.053 206.8 C 390.953 206.8 389.353 205.2 389.353 203.1 C 389.353 201 391.053 199.4 393.053 199.4" fill="white"/>
          </g>
          <g id="Graphic_62">
            <rect x="334.453" y="114" width="119.5" height="78.4" fill="#f8f8ff"/>
          </g>
          <g id="Graphic_61">
            <path d="M 340.453 118 C 341.453 118 342.353 118.9 342.353 119.9 C 342.353 120.9 341.453 121.8 340.453 121.8 C 339.453 121.8 338.553 120.9 338.553 119.9 C 338.553 118.9 339.453 118 340.453 118" fill="#fa5f5d"/>
          </g>
          <g id="Graphic_60">
            <path d="M 346.853 118 C 347.853 118 348.753 118.9 348.753 119.9 C 348.753 120.9 347.853 121.8 346.853 121.8 C 345.853 121.8 344.953 120.9 344.953 119.9 C 344.953 118.9 345.753 118 346.853 118" fill="#fdbc4e"/>
          </g>
          <g id="Graphic_59">
            <path d="M 353.453 118 C 354.453 118 355.353 118.9 355.353 119.9 C 355.353 120.9 354.453 121.8 353.453 121.8 C 352.453 121.8 351.553 120.9 351.553 119.9 C 351.653 118.9 352.453 118 353.453 118" fill="#37cd58"/>
          </g>
          <g id="Graphic_58">
            <path d="M 379.453 131.7 C 379.353 132.7 378.553 133.5 377.553 133.4 L 354.653 133.4 C 353.453 133.4 352.353 132.6 352.353 131.7 L 352.353 128.2 C 352.353 127.3 353.453 126.4 354.653 126.4 L 377.453 126.4 C 378.453 126.3 379.353 127.1 379.453 128.1 L 379.453 128.2 L 379.453 131.7 Z" fill="url(#Obj_Gradient)"/>
          </g>
          <g id="Graphic_57"/>
          <g id="Graphic_56">
            <path d="M 377.953 169.5 C 377.953 170.5 377.053 171.4 376.053 171.4 L 354.653 171.4 C 353.453 171.4 352.353 170.5 352.353 169.5 L 352.353 160 C 352.353 159 353.553 158.1 354.653 158.1 L 375.953 158.1 C 376.953 158 377.853 158.8 377.953 159.9 L 377.953 160 L 377.953 169.5 Z" fill="url(#Obj_Gradient_2)"/>
          </g>
          <g id="Graphic_55">
            <path d="M 405.853 169.5 C 405.853 170.5 404.953 171.4 403.953 171.4 L 382.553 171.4 C 381.353 171.4 380.253 170.5 380.253 169.5 L 380.253 160 C 380.253 159 381.453 158.1 382.553 158.1 L 403.853 158.1 C 404.853 158 405.753 158.8 405.853 159.9 L 405.853 160 L 405.853 169.5 Z" fill="url(#Obj_Gradient_3)"/>
          </g>
          <g id="Graphic_54">
            <path d="M 434.553 169.5 C 434.453 170.6 433.553 171.4 432.453 171.4 L 411.153 171.4 C 409.953 171.5 409.053 170.6 408.853 169.5 L 408.853 160 C 408.953 158.8 409.953 158.1 411.153 158.1 L 432.453 158.1 C 433.553 158 434.553 158.9 434.653 160 Z" fill="url(#Obj_Gradient_4)"/>
          </g>
          <g id="Graphic_53">
            <path d="M 405.853 174.9 C 405.653 175.3 405.353 175.5 404.953 175.6 C 404.853 175.6 404.853 175.6 404.753 175.3 L 381.353 175.3 C 380.853 175.6 380.153 175.3 380.153 174.9 L 380.153 174.6 C 380.153 174.2 380.853 173.8 381.353 173.7 L 404.753 173.7 C 405.153 173.8 405.353 174.1 405.453 174.4 C 405.453 174.5 405.453 174.5 405.653 174.6 Z" fill="#e9edfb"/>
          </g>
          <g id="Graphic_52">
            <path d="M 405.853 177.9 C 405.653 178.3 405.353 178.6 404.953 178.7 C 404.953 178.7 404.853 178.7 404.853 178.4 L 381.353 178.4 C 380.853 178.7 380.153 178.4 380.153 177.9 L 380.153 177.6 C 380.153 177.2 380.853 176.9 381.353 176.8 L 404.753 176.8 C 405.153 176.9 405.553 177.2 405.653 177.6 Z" fill="#e9edfb"/>
          </g>
          <g id="Graphic_51">
            <path d="M 405.853 181 C 405.653 181.5 405.353 181.8 404.953 181.9 C 404.953 181.7 404.953 181.7 404.953 181.5 L 381.453 181.5 C 381.053 181.7 380.553 181.7 380.353 181.3 C 380.253 181.2 380.253 181.1 380.253 181.1 L 380.253 180.8 C 380.253 180.4 380.953 180.2 381.453 180 L 404.853 180 C 405.253 180.1 405.653 180.4 405.753 180.8 Z" fill="#e9edfb"/>
          </g>
          <g id="Graphic_50">
            <path d="M 405.853 184 C 405.653 184.5 405.353 184.9 404.953 185.3 L 381.453 185.3 C 380.953 184.9 380.253 184.4 380.253 184 L 380.253 183.7 C 380.253 183.3 380.953 182.8 381.453 183 L 404.853 183 C 405.153 182.9 405.453 183.2 405.553 183.5 C 405.553 183.6 405.553 183.7 405.553 183.7 C 405.553 183.7 405.553 183.7 405.753 183.8 Z" fill="#e9edfb"/>
          </g>
          <g id="Graphic_49">
            <path d="M 392.853 187.1 C 392.853 187.5 392.653 187.6 392.153 187.6 L 381.353 187.6 C 380.853 187.6 380.253 187.4 380.253 187.1 L 380.253 186.8 C 380.253 186.4 380.853 186.1 381.353 186.1 L 392.153 186.1 C 392.553 186.1 392.853 186.4 392.853 186.8 Z" fill="#e9edfb"/>
          </g>
          <g id="Graphic_48">
            <path d="M 434.553 174.9 C 434.053 175.3 434.153 175.6 433.653 175.3 L 410.253 175.3 C 409.853 175.6 409.453 175.4 409.453 175 C 409.453 175 409.453 175 409.653 174.9 L 409.653 174.6 C 409.453 174.2 409.753 173.8 410.153 173.7 L 433.553 173.7 C 434.053 173.9 433.953 174.2 434.453 174.6 L 434.453 174.9 Z" fill="#e9edfb"/>
          </g>
          <g id="Graphic_47">
            <path d="M 434.553 177.9 C 434.053 178.3 434.153 178.7 433.653 178.4 L 410.253 178.4 C 409.753 178.7 409.453 178.4 409.753 177.9 L 409.753 177.6 C 409.553 177.2 409.853 176.9 410.253 176.8 L 433.653 176.8 C 434.153 177 434.053 177.2 434.553 177.6 Z" fill="#e9edfb"/>
          </g>
          <g id="Graphic_46">
            <path d="M 434.553 181 C 434.053 181.4 434.153 181.9 433.653 181.5 L 410.253 181.5 C 409.753 181.8 409.453 181.5 409.753 181 L 409.753 180.7 C 409.553 180.3 409.853 180.1 410.253 179.9 L 433.653 179.9 C 434.153 180.1 434.053 180.3 434.553 180.7 Z" fill="#e9edfb"/>
          </g>
          <g id="Graphic_45">
            <path d="M 434.553 184 C 434.053 184.4 434.153 184.9 433.653 185.3 L 410.253 185.3 C 409.753 184.8 409.453 184.4 409.753 184 L 409.753 183.7 C 409.553 183.5 409.553 183.2 409.753 183.1 C 409.953 183 410.053 182.9 410.253 183 L 433.753 183 C 434.253 182.8 434.153 183.3 434.653 183.7 L 434.653 184 Z" fill="#e9edfb"/>
          </g>
          <g id="Graphic_44">
            <path d="M 421.653 187.1 C 421.653 187.5 421.653 187.6 421.253 187.6 L 410.353 187.6 C 409.853 187.6 409.653 187.4 409.653 187.1 L 409.653 186.8 C 409.653 186.4 409.953 186.1 410.353 186.1 L 421.153 186.1 C 421.653 186.1 421.553 186.4 421.553 186.8 Z" fill="#e9edfb"/>
          </g>
          <g id="Graphic_43">
            <path d="M 377.153 174.9 C 377.453 175.3 377.353 175.6 376.853 175.3 L 353.353 175.3 C 353.053 175.5 352.653 175.5 352.453 175.2 C 352.353 175.1 352.353 175 352.253 174.9 L 352.253 174.6 C 352.453 174.1 352.753 173.8 353.253 173.7 L 376.653 173.7 C 377.153 173.9 377.253 174.2 376.953 174.6 Z" fill="#e9edfb"/>
          </g>
          <g id="Graphic_42">
            <path d="M 377.153 177.9 C 377.453 178.3 377.353 178.7 376.853 178.4 L 353.353 178.4 C 352.853 178.8 352.453 178.4 352.353 177.9 L 352.353 177.6 C 352.453 177.2 352.853 176.9 353.353 176.8 L 376.753 176.8 C 377.253 177 377.353 177.2 377.053 177.6 Z" fill="#e9edfb"/>
          </g>
          <g id="Graphic_41">
            <path d="M 377.153 181 C 377.453 181.4 377.353 181.9 376.853 181.5 L 353.353 181.5 C 352.853 181.9 352.453 181.5 352.353 181 L 352.353 180.7 C 352.453 180.3 352.853 180.1 353.353 179.9 L 376.753 179.9 C 377.253 180.1 377.353 180.3 377.053 180.7 Z" fill="#e9edfb"/>
          </g>
          <g id="Graphic_40">
            <path d="M 370.153 183 L 376.853 183 C 377.353 182.8 377.453 183.3 377.153 183.7 L 377.153 184 C 377.453 184.4 377.353 184.9 376.853 185.3 L 353.353 185.3 C 352.853 185 352.553 184.5 352.353 184 L 352.353 183.7 C 352.453 183.2 352.853 182.9 353.353 183 L 370.153 183" fill="#e9edfb"/>
          </g>
          <g id="Graphic_39">
            <path d="M 365.553 187.1 C 365.553 187.5 365.353 187.6 364.853 187.6 L 353.253 187.6 C 352.753 187.6 352.353 187.4 352.353 187.1 L 352.353 186.8 C 352.453 186.4 352.853 186.1 353.253 186.1 L 364.853 186.1 C 365.253 186.1 365.553 186.4 365.553 186.7 C 365.553 186.7 365.553 186.7 365.553 186.8 Z" fill="#e9edfb"/>
          </g>
        </g>
        <g id="Group_20">
          <g id="Graphic_27">
            <path d="M 287.2 185.8 C 287.2 187.9 285.6 189.5 283.5 189.5 L 229.7 189.5 C 227.7 189.5 226 187.9 226 185.8 L 226 71.7 C 226 69.7 227.6 68 229.7 68 L 283.5 68 C 285.5 68 287.2 69.6 287.2 71.7 Z" fill="url(#Obj_Gradient_5)"/>
          </g>
          <g id="Graphic_26">
            <rect x="232.2" y="83.9" width="49.5" height="90.3" fill="white"/>
          </g>
          <g id="Graphic_25">
            <path d="M 232.3 174.3 L 232.3 84.1 L 265.6 84 L 245.8 174.2 Z" fill="white"/>
          </g>
          <g id="Graphic_24">
            <path d="M 252.9 76.9 L 260.2 76.9 C 260.7 76.9 261.2 77.3 261.2 77.9 C 261.2 78.4 260.8 78.9 260.2 78.9 L 252.9 78.9 C 252.4 78.9 251.9 78.5 251.9 77.9 C 251.9 77.3 252.3 76.9 252.9 76.9 Z" fill="white"/>
            <path d="M 252.9 76.9 L 260.2 76.9 C 260.7 76.9 261.2 77.3 261.2 77.9 C 261.2 78.4 260.8 78.9 260.2 78.9 L 252.9 78.9 C 252.4 78.9 251.9 78.5 251.9 77.9 C 251.9 77.3 252.3 76.9 252.9 76.9 Z" stroke="white" stroke-linecap="butt" stroke-linejoin="round" stroke-width="1"/>
          </g>
          <g id="Graphic_23">
            <circle cx="256.6" cy="73.4" r="0.90000188811241" fill="white"/>
          </g>
          <g id="Graphic_22"/>
          <g id="Graphic_21">
            <circle cx="256.6" cy="181.7" r="2.90000608391779" fill="white"/>
            <circle cx="256.6" cy="181.7" r="2.90000608391779" stroke="white" stroke-linecap="butt" stroke-linejoin="round" stroke-width="2"/>
          </g>
        </g>
      </g>
    </g>
  </g>
</svg>
