<?xml version="1.0" encoding="UTF-8" standalone="no"?>
<!DOCTYPE svg PUBLIC "-//W3C//DTD SVG 1.1//EN" "http://www.w3.org/Graphics/SVG/1.1/DTD/svg11.dtd">
<svg xmlns="http://www.w3.org/2000/svg" xmlns:xl="http://www.w3.org/1999/xlink" version="1.1" xmlns:dc="http://purl.org/dc/elements/1.1/" viewBox="0 0 500 361" width="500" height="361">
  <defs>
    <linearGradient x1="0" x2="1" id="Gradient" gradientUnits="userSpaceOnUse">
      <stop offset="0" stop-color="#f71d69"/>
      <stop offset=".49930103" stop-color="#b66e51"/>
      <stop offset="1" stop-color="#68bc36"/>
    </linearGradient>
    <linearGradient id="Obj_Gradient" xl:href="#Gradient" gradientTransform="translate(354.853 185.9) scale(27.1)"/>
    <linearGradient x1="0" x2="1" id="Gradient_2" gradientUnits="userSpaceOnUse">
      <stop offset="0" stop-color="#68bc36"/>
      <stop offset=".49766393" stop-color="#52a49b"/>
      <stop offset="1" stop-color="#3a8eed"/>
    </linearGradient>
    <linearGradient id="Obj_Gradient_2" xl:href="#Gradient_2" gradientTransform="translate(354.853 220.74578) scale(25.6)"/>
    <linearGradient x1="0" x2="1" id="Gradient_3" gradientUnits="userSpaceOnUse">
      <stop offset="0" stop-color="#e5a4ed"/>
      <stop offset="0" stop-color="#ac90ca"/>
      <stop offset="1" stop-color="#6b7ca5"/>
    </linearGradient>
    <linearGradient id="Obj_Gradient_3" xl:href="#Gradient_3" gradientTransform="translate(382.753 220.74578) scale(25.6)"/>
    <linearGradient x1="0" x2="1" id="Gradient_4" gradientUnits="userSpaceOnUse">
      <stop offset="0" stop-color="#e5a4ed"/>
      <stop offset="0" stop-color="#ec83b5"/>
      <stop offset="1" stop-color="#f26077"/>
    </linearGradient>
    <linearGradient id="Obj_Gradient_4" xl:href="#Gradient_4" gradientTransform="translate(411.353 220.75) scale(25.8)"/>
    <linearGradient x1="0" x2="1" id="Gradient_5" gradientUnits="userSpaceOnUse">
      <stop offset="0" stop-color="#8efa00"/>
      <stop offset="0" stop-color="#55c72f"/>
      <stop offset="1" stop-color="#009051"/>
    </linearGradient>
    <linearGradient id="Obj_Gradient_5" xl:href="#Gradient_5" gradientTransform="translate(210.59597 147.01138) rotate(37.88474) scale(122.91207)"/>
  </defs>
  <metadata> Produced by OmniGraffle 7.18.1\n2021-01-04 23:29:22 +0000</metadata>
  <g id="Canvas_1" fill-opacity="1" stroke-dasharray="none" stroke-opacity="1" stroke="none" fill="none">
    <title>Canvas 1</title>
    <g id="Canvas_1_Layer_1">
      <title>Layer 1</title>
      <g id="Group_2">
        <title>Layer_1</title>
        <g id="Group_3">
          <g id="Graphic_18">
            <path d="M 49.35146 190.85525 C 41.67283 139.35525 24.420856 134.85525 11.157776 108.85525 C -.9086356 85.25525 -10.581709 46.555253 23.423632 18.855253 C 76.27651 -24.144747 141.09607 19.855253 141.09607 19.855253 C 141.09607 19.855253 243.81015 78.85525 261.76018 81.85525 C 279.71022 84.85525 323.58808 114.85525 378.4354 78.85525 C 433.2827 42.855253 480.15225 45.855253 495.1106 72.85525 C 510.069 99.85525 476.16336 177.85525 468.18557 193.85525 C 460.2078 209.85525 472.17446 259.85525 485.1384 279.85525 C 498.1023 299.85525 538.9885 361.85525 451.23276 359.85525 C 363.47704 357.85525 100.20988 360.85525 100.20988 360.85525 C 100.20988 360.85525 5.673043 359.05525 22.426408 266.85525 C 36.387544 189.85525 52.34313 210.85525 49.35146 190.85525 Z" fill="#009051" fill-opacity=".10717612"/>
          </g>
          <g id="Graphic_17">
            <circle cx="203.8494" cy="89.85526" r="20.0000419580539" fill="#009051" fill-opacity=".7908475"/>
          </g>
          <g id="Graphic_16">
            <circle cx="126.39149" cy="75.00001" r="13.5000283216864" fill="#4e8f00" fill-opacity=".6555257"/>
          </g>
          <g id="Graphic_15">
            <circle cx="157.50002" cy="97.50001" r="7.50001573427021" fill="#009051" fill-opacity=".5"/>
          </g>
          <g id="Graphic_14">
            <circle cx="465" cy="308.6018" r="20.0003464563747" fill="#009051" fill-opacity=".8008589"/>
          </g>
          <g id="Graphic_13">
            <circle cx="108.00001" cy="23.000008" r="7.50001573427021" fill="#009051" fill-opacity=".28616515"/>
          </g>
          <g id="Graphic_12">
            <circle cx="225.50004" cy="297.50004" r="35.5000744755457" fill="#008f00" fill-opacity=".32566743"/>
          </g>
          <g id="Graphic_11">
            <circle cx="292.00002" cy="326.50002" r="24.0000503496646" fill="#4e8f00" fill-opacity=".23926428"/>
          </g>
          <g id="Graphic_10">
            <circle cx="320.5" cy="137.00001" r="13.0000272727351" fill="#00fa00" fill-opacity=".34318088"/>
          </g>
          <g id="Graphic_9">
            <circle cx="402.50003" cy="116.00003" r="26.00005454547" fill="#008f00" fill-opacity=".2095923"/>
          </g>
          <g id="Graphic_8">
            <circle cx="152.50001" cy="45.00001" r="12.5000262237837" fill="#009051" fill-opacity=".6927773"/>
          </g>
          <g id="Graphic_7">
            <circle cx="180.00001" cy="338.00004" r="12.5000262237837" fill="#008f00" fill-opacity=".22053498"/>
          </g>
          <g id="Graphic_6">
            <circle cx="465" cy="89.85526" r="12.5000262237837" fill="#4e8f00" fill-opacity=".57967715"/>
          </g>
          <g id="Graphic_5">
            <circle cx="374" cy="323.74475" r="13.5000283216864" fill="#009051" fill-opacity=".8559603"/>
          </g>
          <g id="Graphic_4">
            <circle cx="402.50003" cy="337.35526" r="7.50001573427026" fill="#68bc36" fill-opacity=".587024"/>
          </g>
        </g>
      </g>
      <g id="Group_19">
        <title>Layer_2</title>
        <g id="Group_38">
          <title>Computer</title>
          <g id="Graphic_67">
            <path d="M 337.753 265.4012 L 455.953 265.4012 C 455.953 265.4012 460.353 265.24606 460.353 261.21233 L 460.353 253.3 L 333.053 253.3 L 333.053 262.84134 C 333.753 264.47035 335.553 265.47878 337.753 265.4012" fill="#009051" fill-opacity=".7744205"/>
          </g>
          <g id="Graphic_66">
            <rect x="333" y="166" width="127.3" height="87.3" fill="#009051" fill-opacity=".7744205"/>
          </g>
          <g id="Graphic_65">
            <rect x="386.5566" y="265.4054" width="18.792746" height="19.29462" fill="#009051" fill-opacity=".7744205"/>
          </g>
          <g id="Graphic_64">
            <path d="M 357.153 284.7 L 434.553 284.7 L 434.653 288.6 L 357.153 288.6 Z" fill="#009051" fill-opacity=".7744205"/>
          </g>
          <g id="Graphic_63">
            <path d="M 395.553 255.4 C 397.653 255.4 399.253 257 399.253 259.1 C 399.253 261.2 397.653 262.8 395.553 262.8 C 393.453 262.8 391.853 261.2 391.853 259.1 C 391.853 257 393.553 255.4 395.553 255.4" fill="white"/>
          </g>
          <g id="Graphic_62">
            <rect x="336.953" y="170" width="119.5" height="78.4" fill="#f8f8ff"/>
          </g>
          <g id="Graphic_61">
            <path d="M 342.953 174 C 343.953 174 344.853 174.9 344.853 175.9 C 344.853 176.9 343.953 177.8 342.953 177.8 C 341.953 177.8 341.053 176.9 341.053 175.9 C 341.053 174.9 341.953 174 342.953 174" fill="#fa5f5d"/>
          </g>
          <g id="Graphic_60">
            <path d="M 349.353 174 C 350.353 174 351.253 174.9 351.253 175.9 C 351.253 176.9 350.353 177.8 349.353 177.8 C 348.353 177.8 347.453 176.9 347.453 175.9 C 347.453 174.9 348.253 174 349.353 174" fill="#fdbc4e"/>
          </g>
          <g id="Graphic_59">
            <path d="M 355.953 174 C 356.953 174 357.853 174.9 357.853 175.9 C 357.853 176.9 356.953 177.8 355.953 177.8 C 354.953 177.8 354.053 176.9 354.053 175.9 C 354.153 174.9 354.953 174 355.953 174" fill="#37cd58"/>
          </g>
          <g id="Graphic_58">
            <path d="M 381.953 187.7 C 381.853 188.7 381.053 189.5 380.053 189.4 L 357.153 189.4 C 355.953 189.4 354.853 188.6 354.853 187.7 L 354.853 184.2 C 354.853 183.3 355.953 182.4 357.153 182.4 L 379.953 182.4 C 380.953 182.3 381.853 183.1 381.953 184.1 L 381.953 184.2 L 381.953 187.7 Z" fill="url(#Obj_Gradient)"/>
          </g>
          <g id="Graphic_57"/>
          <g id="Graphic_56">
            <path d="M 380.453 225.5 C 380.453 226.5 379.553 227.4 378.553 227.4 L 357.153 227.4 C 355.953 227.4 354.853 226.5 354.853 225.5 L 354.853 216 C 354.853 215 356.053 214.1 357.153 214.1 L 378.453 214.1 C 379.453 214 380.353 214.8 380.453 215.9 L 380.453 216 L 380.453 225.5 Z" fill="url(#Obj_Gradient_2)"/>
          </g>
          <g id="Graphic_55">
            <path d="M 408.353 225.5 C 408.353 226.5 407.453 227.4 406.453 227.4 L 385.053 227.4 C 383.853 227.4 382.753 226.5 382.753 225.5 L 382.753 216 C 382.753 215 383.953 214.1 385.053 214.1 L 406.353 214.1 C 407.353 214 408.253 214.8 408.353 215.9 L 408.353 216 L 408.353 225.5 Z" fill="url(#Obj_Gradient_3)"/>
          </g>
          <g id="Graphic_54">
            <path d="M 437.053 225.5 C 436.953 226.6 436.053 227.4 434.953 227.4 L 413.653 227.4 C 412.453 227.5 411.553 226.6 411.353 225.5 L 411.353 216 C 411.453 214.8 412.453 214.1 413.653 214.1 L 434.953 214.1 C 436.053 214 437.053 214.9 437.153 216 Z" fill="url(#Obj_Gradient_4)"/>
          </g>
          <g id="Graphic_53">
            <path d="M 408.353 230.9 C 408.153 231.3 407.853 231.5 407.453 231.6 C 407.353 231.6 407.353 231.6 407.253 231.3 L 383.853 231.3 C 383.353 231.6 382.653 231.3 382.653 230.9 L 382.653 230.6 C 382.653 230.2 383.353 229.8 383.853 229.7 L 407.253 229.7 C 407.653 229.8 407.853 230.1 407.953 230.4 C 407.953 230.5 407.953 230.5 408.153 230.6 Z" fill="#e9edfb"/>
          </g>
          <g id="Graphic_52">
            <path d="M 408.353 233.9 C 408.153 234.3 407.853 234.6 407.453 234.7 C 407.453 234.7 407.353 234.7 407.353 234.4 L 383.853 234.4 C 383.353 234.7 382.653 234.4 382.653 233.9 L 382.653 233.6 C 382.653 233.2 383.353 232.9 383.853 232.8 L 407.253 232.8 C 407.653 232.9 408.053 233.2 408.153 233.6 Z" fill="#e9edfb"/>
          </g>
          <g id="Graphic_51">
            <path d="M 408.353 237 C 408.153 237.5 407.853 237.8 407.453 237.9 C 407.453 237.7 407.453 237.7 407.453 237.5 L 383.953 237.5 C 383.553 237.7 383.053 237.7 382.853 237.3 C 382.753 237.2 382.753 237.1 382.753 237.1 L 382.753 236.8 C 382.753 236.4 383.453 236.2 383.953 236 L 407.353 236 C 407.753 236.1 408.153 236.4 408.253 236.8 Z" fill="#e9edfb"/>
          </g>
          <g id="Graphic_50">
            <path d="M 408.353 240 C 408.153 240.5 407.853 240.9 407.453 241.3 L 383.953 241.3 C 383.453 240.9 382.753 240.4 382.753 240 L 382.753 239.7 C 382.753 239.3 383.453 238.8 383.953 239 L 407.353 239 C 407.653 238.9 407.953 239.2 408.053 239.5 C 408.053 239.6 408.053 239.7 408.053 239.7 C 408.053 239.7 408.053 239.7 408.253 239.8 Z" fill="#e9edfb"/>
          </g>
          <g id="Graphic_49">
            <path d="M 395.353 243.1 C 395.353 243.5 395.153 243.6 394.653 243.6 L 383.853 243.6 C 383.353 243.6 382.753 243.4 382.753 243.1 L 382.753 242.8 C 382.753 242.4 383.353 242.1 383.853 242.1 L 394.653 242.1 C 395.053 242.1 395.353 242.4 395.353 242.8 Z" fill="#e9edfb"/>
          </g>
          <g id="Graphic_48">
            <path d="M 437.053 230.9 C 436.553 231.3 436.653 231.6 436.153 231.3 L 412.753 231.3 C 412.353 231.6 411.953 231.4 411.953 231 C 411.953 231 411.953 231 412.153 230.9 L 412.153 230.6 C 411.953 230.2 412.253 229.8 412.653 229.7 L 436.053 229.7 C 436.553 229.9 436.453 230.2 436.953 230.6 L 436.953 230.9 Z" fill="#e9edfb"/>
          </g>
          <g id="Graphic_47">
            <path d="M 437.053 233.9 C 436.553 234.3 436.653 234.7 436.153 234.4 L 412.753 234.4 C 412.253 234.7 411.953 234.4 412.253 233.9 L 412.253 233.6 C 412.053 233.2 412.353 232.9 412.753 232.8 L 436.153 232.8 C 436.653 233 436.553 233.2 437.053 233.6 Z" fill="#e9edfb"/>
          </g>
          <g id="Graphic_46">
            <path d="M 437.053 237 C 436.553 237.4 436.653 237.9 436.153 237.5 L 412.753 237.5 C 412.253 237.8 411.953 237.5 412.253 237 L 412.253 236.7 C 412.053 236.3 412.353 236.1 412.753 235.9 L 436.153 235.9 C 436.653 236.1 436.553 236.3 437.053 236.7 Z" fill="#e9edfb"/>
          </g>
          <g id="Graphic_45">
            <path d="M 437.053 240 C 436.553 240.4 436.653 240.9 436.153 241.3 L 412.753 241.3 C 412.253 240.8 411.953 240.4 412.253 240 L 412.253 239.7 C 412.053 239.5 412.053 239.2 412.253 239.1 C 412.453 239 412.553 238.9 412.753 239 L 436.253 239 C 436.753 238.8 436.653 239.3 437.153 239.7 L 437.153 240 Z" fill="#e9edfb"/>
          </g>
          <g id="Graphic_44">
            <path d="M 424.153 243.1 C 424.153 243.5 424.153 243.6 423.753 243.6 L 412.853 243.6 C 412.353 243.6 412.153 243.4 412.153 243.1 L 412.153 242.8 C 412.153 242.4 412.453 242.1 412.853 242.1 L 423.653 242.1 C 424.153 242.1 424.053 242.4 424.053 242.8 Z" fill="#e9edfb"/>
          </g>
          <g id="Graphic_43">
            <path d="M 379.653 230.9 C 379.953 231.3 379.853 231.6 379.353 231.3 L 355.853 231.3 C 355.553 231.5 355.153 231.5 354.953 231.2 C 354.853 231.1 354.853 231 354.753 230.9 L 354.753 230.6 C 354.953 230.1 355.253 229.8 355.753 229.7 L 379.153 229.7 C 379.653 229.9 379.753 230.2 379.453 230.6 Z" fill="#e9edfb"/>
          </g>
          <g id="Graphic_42">
            <path d="M 379.653 233.9 C 379.953 234.3 379.853 234.7 379.353 234.4 L 355.853 234.4 C 355.353 234.8 354.953 234.4 354.853 233.9 L 354.853 233.6 C 354.953 233.2 355.353 232.9 355.853 232.8 L 379.253 232.8 C 379.753 233 379.853 233.2 379.553 233.6 Z" fill="#e9edfb"/>
          </g>
          <g id="Graphic_41">
            <path d="M 379.653 237 C 379.953 237.4 379.853 237.9 379.353 237.5 L 355.853 237.5 C 355.353 237.9 354.953 237.5 354.853 237 L 354.853 236.7 C 354.953 236.3 355.353 236.1 355.853 235.9 L 379.253 235.9 C 379.753 236.1 379.853 236.3 379.553 236.7 Z" fill="#e9edfb"/>
          </g>
          <g id="Graphic_40">
            <path d="M 372.653 239 L 379.353 239 C 379.853 238.8 379.953 239.3 379.653 239.7 L 379.653 240 C 379.953 240.4 379.853 240.9 379.353 241.3 L 355.853 241.3 C 355.353 241 355.053 240.5 354.853 240 L 354.853 239.7 C 354.953 239.2 355.353 238.9 355.853 239 L 372.653 239" fill="#e9edfb"/>
          </g>
          <g id="Graphic_39">
            <path d="M 368.053 243.1 C 368.053 243.5 367.853 243.6 367.353 243.6 L 355.753 243.6 C 355.253 243.6 354.853 243.4 354.853 243.1 L 354.853 242.8 C 354.953 242.4 355.353 242.1 355.753 242.1 L 367.353 242.1 C 367.753 242.1 368.053 242.4 368.053 242.7 C 368.053 242.7 368.053 242.7 368.053 242.8 Z" fill="#e9edfb"/>
          </g>
        </g>
        <g id="Group_20">
          <g id="Graphic_27">
            <path d="M 289.7 241.8 C 289.7 243.9 288.1 245.5 286 245.5 L 232.2 245.5 C 230.2 245.5 228.5 243.9 228.5 241.8 L 228.5 127.7 C 228.5 125.7 230.1 124 232.2 124 L 286 124 C 288 124 289.7 125.6 289.7 127.7 Z" fill="url(#Obj_Gradient_5)"/>
          </g>
          <g id="Graphic_26">
            <rect x="234.7" y="139.9" width="49.5" height="90.3" fill="white"/>
          </g>
          <g id="Graphic_25">
            <path d="M 234.8 230.3 L 234.8 140.1 L 268.1 140 L 248.3 230.2 Z" fill="white"/>
          </g>
          <g id="Graphic_24">
            <path d="M 255.4 132.9 L 262.7 132.9 C 263.2 132.9 263.7 133.3 263.7 133.9 C 263.7 134.4 263.3 134.9 262.7 134.9 L 255.4 134.9 C 254.9 134.9 254.4 134.5 254.4 133.9 C 254.4 133.3 254.8 132.9 255.4 132.9 Z" fill="white"/>
            <path d="M 255.4 132.9 L 262.7 132.9 C 263.2 132.9 263.7 133.3 263.7 133.9 C 263.7 134.4 263.3 134.9 262.7 134.9 L 255.4 134.9 C 254.9 134.9 254.4 134.5 254.4 133.9 C 254.4 133.3 254.8 132.9 255.4 132.9 Z" stroke="white" stroke-linecap="butt" stroke-linejoin="round" stroke-width="1"/>
          </g>
          <g id="Graphic_23">
            <circle cx="259.1" cy="129.4" r="0.900001888112412" fill="white"/>
          </g>
          <g id="Graphic_22"/>
          <g id="Graphic_21">
            <circle cx="259.1" cy="237.7" r="2.90000608391779" fill="white"/>
            <circle cx="259.1" cy="237.7" r="2.90000608391779" stroke="white" stroke-linecap="butt" stroke-linejoin="round" stroke-width="2"/>
          </g>
        </g>
      </g>
    </g>
  </g>
</svg>
